<svg xmlns="http://www.w3.org/2000/svg" width="1800" height="1200" viewBox="0 0 1800 1200">
<rect width="1800" height="1200" fill="white"/>
<text x="900.00" y="45.00" font-family="DejaVu Sans, Arial, sans-serif" font-size="34" font-weight="bold" fill="#111" text-anchor="middle">12-TONE RESONANCE SPIRAL COORDINATE SYSTEM</text>
<text x="900.00" y="82.00" font-family="DejaVu Sans, Arial, sans-serif" font-size="17" font-weight="normal" fill="#111" text-anchor="middle">corrected: sector angles are calculated through φₙ₊₁ = φₙ / ¹²√2 and Φₙ = 2(φₙ − φₙ₊₁)</text>
<line x1="610.00" y1="570.00" x2="818.74" y2="50.36" stroke="#bbbbbb" stroke-width="1" opacity="0.65" stroke-dasharray="4 4"/>
<text x="831.79" y="17.88" font-family="DejaVu Sans, Arial, sans-serif" font-size="22" font-weight="bold" fill="#444" text-anchor="middle">1</text>
<line x1="610.00" y1="570.00" x2="432.08" y2="39.02" stroke="#bbbbbb" stroke-width="1" opacity="0.65" stroke-dasharray="4 4"/>
<text x="420.96" y="5.83" font-family="DejaVu Sans, Arial, sans-serif" font-size="22" font-weight="bold" fill="#444" text-anchor="middle">2</text>
<line x1="610.00" y1="570.00" x2="142.12" y2="262.28" stroke="#bbbbbb" stroke-width="1" opacity="0.65" stroke-dasharray="4 4"/>
<text x="112.88" y="243.05" font-family="DejaVu Sans, Arial, sans-serif" font-size="22" font-weight="bold" fill="#444" text-anchor="middle">3</text>
<line x1="610.00" y1="570.00" x2="50.61" y2="596.08" stroke="#bbbbbb" stroke-width="1" opacity="0.65" stroke-dasharray="4 4"/>
<text x="15.65" y="597.71" font-family="DejaVu Sans, Arial, sans-serif" font-size="22" font-weight="bold" fill="#444" text-anchor="middle">4</text>
<line x1="610.00" y1="570.00" x2="160.71" y2="904.28" stroke="#bbbbbb" stroke-width="1" opacity="0.65" stroke-dasharray="4 4"/>
<text x="132.63" y="925.17" font-family="DejaVu Sans, Arial, sans-serif" font-size="22" font-weight="bold" fill="#444" text-anchor="middle">5</text>
<line x1="610.00" y1="570.00" x2="406.80" y2="1091.83" stroke="#bbbbbb" stroke-width="1" opacity="0.65" stroke-dasharray="4 4"/>
<text x="394.10" y="1124.45" font-family="DejaVu Sans, Arial, sans-serif" font-size="22" font-weight="bold" fill="#444" text-anchor="middle">6</text>
<line x1="610.00" y1="570.00" x2="697.58" y2="1123.11" stroke="#bbbbbb" stroke-width="1" opacity="0.65" stroke-dasharray="4 4"/>
<text x="703.05" y="1157.68" font-family="DejaVu Sans, Arial, sans-serif" font-size="22" font-weight="bold" fill="#444" text-anchor="middle">7</text>
<line x1="610.00" y1="570.00" x2="951.47" y2="1013.85" stroke="#bbbbbb" stroke-width="1" opacity="0.65" stroke-dasharray="4 4"/>
<text x="972.81" y="1041.59" font-family="DejaVu Sans, Arial, sans-serif" font-size="22" font-weight="bold" fill="#444" text-anchor="middle">8</text>
<line x1="610.00" y1="570.00" x2="1115.63" y2="810.71" stroke="#bbbbbb" stroke-width="1" opacity="0.65" stroke-dasharray="4 4"/>
<text x="1147.23" y="825.75" font-family="DejaVu Sans, Arial, sans-serif" font-size="22" font-weight="bold" fill="#444" text-anchor="middle">9</text>
<line x1="610.00" y1="570.00" x2="1170.00" y2="570.00" stroke="#bbbbbb" stroke-width="1" opacity="0.65" stroke-dasharray="4 4"/>
<text x="1205.00" y="570.00" font-family="DejaVu Sans, Arial, sans-serif" font-size="22" font-weight="bold" fill="#444" text-anchor="middle">A</text>
<line x1="610.00" y1="570.00" x2="1121.47" y2="341.98" stroke="#bbbbbb" stroke-width="1" opacity="0.65" stroke-dasharray="4 4"/>
<text x="1153.44" y="327.72" font-family="DejaVu Sans, Arial, sans-serif" font-size="22" font-weight="bold" fill="#444" text-anchor="middle">B</text>
<line x1="610.00" y1="570.00" x2="994.00" y2="162.39" stroke="#bbbbbb" stroke-width="1" opacity="0.65" stroke-dasharray="4 4"/>
<text x="1018.00" y="136.92" font-family="DejaVu Sans, Arial, sans-serif" font-size="22" font-weight="bold" fill="#444" text-anchor="middle">C</text>
<line x1="610.00" y1="570.00" x2="1225.00" y2="570.00" stroke="#111" stroke-width="2" opacity="1"/>
<line x1="610.00" y1="570.00" x2="610.00" y2="-45.00" stroke="#111" stroke-width="2" opacity="1"/>
<text x="1250.00" y="578.00" font-family="DejaVu Sans, Arial, sans-serif" font-size="24" font-weight="bold" fill="#111" text-anchor="middle">x12</text>
<text x="610.00" y="-60.00" font-family="DejaVu Sans, Arial, sans-serif" font-size="24" font-weight="bold" fill="#111" text-anchor="middle">y12</text>
<path d="M 638.00 570.00 L 638.02 569.86 L 638.04 569.72 L 638.06 569.58 L 638.08 569.43 L 638.10 569.29 L 638.12 569.15 L 638.13 569.01 L 638.15 568.87 L 638.17 568.72 L 638.18 568.58 L 638.19 568.44 L 638.21 568.29 L 638.22 568.15 L 638.23 568.01 L 638.24 567.86 L 638.25 567.72 L 638.26 567.58 L 638.27 567.43 L 638.28 567.29 L 638.29 567.14 L 638.30 567.00 L 638.30 566.85 L 638.31 566.71 L 638.31 566.56 L 638.32 566.42 L 638.32 566.27 L 638.32 566.13 L 638.32 565.98 L 638.33 565.84 L 638.33 565.69 L 638.33 565.54 L 638.32 565.40 L 638.32 565.25 L 638.32 565.11 L 638.32 564.96 L 638.31 564.81 L 638.31 564.67 L 638.30 564.52 L 638.30 564.37 L 638.29 564.23 L 638.28 564.08 L 638.27 563.93 L 638.26 563.79 L 638.25 563.64 L 638.24 563.49 L 638.23 563.35 L 638.22 563.20 L 638.21 563.05 L 638.19 562.90 L 638.18 562.76 L 638.16 562.61 L 638.15 562.46 L 638.13 562.31 L 638.11 562.17 L 638.09 562.02 L 638.07 561.87 L 638.05 561.72 L 638.03 561.58 L 638.01 561.43 L 637.99 561.28 L 637.97 561.13 L 637.94 560.99 L 637.92 560.84 L 637.89 560.69 L 637.87 560.54 L 637.84 560.40 L 637.81 560.25 L 637.79 560.10 L 637.76 559.95 L 637.73 559.81 L 637.70 559.66 L 637.67 559.51 L 637.63 559.37 L 637.60 559.22 L 637.57 559.07 L 637.53 558.92 L 637.50 558.78 L 637.46 558.63 L 637.42 558.48 L 637.39 558.34 L 637.35 558.19 L 637.31 558.04 L 637.27 557.90 L 637.23 557.76 L 637.19 557.62 L 637.16 557.48 L 637.12 557.34 L 637.08 557.20 L 637.04 557.06 L 637.00 556.92 L 636.95 556.79 L 636.91 556.65 L 636.87 556.51 L 636.82 556.37 L 636.78 556.24 L 636.73 556.10 L 636.69 555.96 L 636.64 555.82 L 636.59 555.69 L 636.55 555.55 L 636.50 555.41 L 636.45 555.27 L 636.40 555.14 L 636.35 555.00 L 636.30 554.86 L 636.24 554.73 L 636.19 554.59 L 636.14 554.46 L 636.08 554.32 L 636.03 554.18 L 635.97 554.05 L 635.92 553.91 L 635.86 553.78 L 635.80 553.64 L 635.74 553.51 L 635.68 553.37 L 635.62 553.24 L 635.56 553.10 L 635.50 552.97 L 635.44 552.84 L 635.38 552.70 L 635.31 552.57 L 635.25 552.44 L 635.19 552.30 L 635.12 552.17 L 635.05 552.04 L 634.99 551.90 L 634.92 551.77 L 634.85 551.64 L 634.78 551.51 L 634.71 551.38 L 634.64 551.24 L 634.57 551.11 L 634.50 550.98 L 634.43 550.85 L 634.36 550.72 L 634.28 550.59 L 634.21 550.46 L 634.14 550.33 L 634.06 550.20 L 633.98 550.07 L 633.91 549.94 L 633.83 549.81 L 633.75 549.69 L 633.67 549.56 L 633.59 549.43 L 633.51 549.30 L 633.43 549.18 L 633.35 549.05 L 633.27 548.92 L 633.19 548.80 L 633.10 548.67 L 633.02 548.54 L 632.93 548.42 L 632.85 548.29 L 632.76 548.17 L 632.68 548.04 L 632.59 547.92 L 632.50 547.80 L 632.41 547.67 L 632.32 547.55 L 632.23 547.43 L 632.14 547.30 L 632.05 547.18 L 631.96 547.06 L 631.87 546.94 L 631.77 546.82 L 631.69 546.70 L 631.60 546.59 L 631.51 546.47 L 631.42 546.36 L 631.33 546.25 L 631.24 546.13 L 631.15 546.02 L 631.06 545.91 L 630.96 545.79 L 630.87 545.68 L 630.78 545.57 L 630.68 545.46 L 630.59 545.35 L 630.49 545.24 L 630.40 545.13 L 630.30 545.02 L 630.20 544.91 L 630.11 544.80 L 630.01 544.69 L 629.91 544.58 L 629.81 544.47 L 629.71 544.36 L 629.61 544.25 L 629.51 544.15 L 629.41 544.04 L 629.31 543.93 L 629.20 543.83 L 629.10 543.72 L 629.00 543.62 L 628.89 543.51 L 628.79 543.41 L 628.68 543.30 L 628.58 543.20 L 628.47 543.10 L 628.36 542.99 L 628.26 542.89 L 628.15 542.79 L 628.04 542.69 L 627.93 542.59 L 627.82 542.48 L 627.71 542.38 L 627.60 542.28 L 627.49 542.18 L 627.38 542.09 L 627.27 541.99 L 627.15 541.89 L 627.04 541.79 L 626.93 541.69 L 626.81 541.60 L 626.70 541.50 L 626.58 541.40 L 626.47 541.31 L 626.35 541.21 L 626.23 541.12 L 626.11 541.02 L 626.00 540.93 L 625.88 540.83 L 625.76 540.74 L 625.64 540.65 L 625.52 540.56 L 625.40 540.47 L 625.28 540.37 L 625.16 540.28 L 625.03 540.19 L 624.91 540.10 L 624.79 540.01 L 624.67 539.93 L 624.54 539.84 L 624.42 539.75 L 624.29 539.66 L 624.17 539.58 L 624.04 539.49 L 623.91 539.40 L 623.79 539.32 L 623.66 539.23 L 623.53 539.15 L 623.40 539.07 L 623.27 538.98 L 623.15 538.90 L 623.02 538.82 L 622.89 538.74 L 622.75 538.66 L 622.62 538.58 L 622.37 538.45 L 622.11 538.32 L 621.85 538.19 L 621.59 538.07 L 621.33 537.95 L 621.06 537.83 L 620.80 537.71 L 620.53 537.60 L 620.26 537.49 L 620.00 537.38 L 619.73 537.27 L 619.46 537.16 L 619.19 537.06 L 618.91 536.96 L 618.64 536.86 L 618.37 536.76 L 618.09 536.67 L 617.81 536.57 L 617.54 536.48 L 617.26 536.39 L 616.98 536.31 L 616.70 536.23 L 616.42 536.14 L 616.13 536.07 L 615.85 535.99 L 615.57 535.92 L 615.28 535.84 L 615.00 535.78 L 614.71 535.71 L 614.42 535.64 L 614.14 535.58 L 613.85 535.52 L 613.56 535.46 L 613.27 535.41 L 612.98 535.36 L 612.69 535.31 L 612.39 535.26 L 612.10 535.21 L 611.81 535.17 L 611.52 535.13 L 611.22 535.09 L 610.93 535.06 L 610.63 535.02 L 610.34 534.99 L 610.04 534.97 L 609.74 534.94 L 609.45 534.92 L 609.15 534.90 L 608.85 534.88 L 608.55 534.86 L 608.25 534.85 L 607.95 534.84 L 607.65 534.83 L 607.36 534.83 L 607.06 534.83 L 606.76 534.82 L 606.45 534.83 L 606.15 534.83 L 605.85 534.84 L 605.55 534.85 L 605.25 534.86 L 604.95 534.88 L 604.65 534.89 L 604.35 534.91 L 604.05 534.94 L 603.75 534.96 L 603.45 534.99 L 603.14 535.02 L 602.84 535.05 L 602.54 535.09 L 602.24 535.13 L 601.94 535.17 L 601.64 535.21 L 601.34 535.26 L 601.04 535.31 L 600.74 535.36 L 600.44 535.41 L 600.14 535.47 L 599.84 535.53 L 599.54 535.59 L 599.24 535.65 L 598.94 535.72 L 598.64 535.79 L 598.36 535.86 L 598.07 535.92 L 597.79 535.99 L 597.51 536.07 L 597.23 536.14 L 596.95 536.22 L 596.67 536.30 L 596.39 536.38 L 596.12 536.47 L 595.84 536.55 L 595.56 536.64 L 595.28 536.74 L 595.01 536.83 L 594.73 536.93 L 594.46 537.02 L 594.18 537.12 L 593.91 537.23 L 593.63 537.33 L 593.36 537.44 L 593.09 537.55 L 592.82 537.66 L 592.55 537.77 L 592.28 537.89 L 592.01 538.01 L 591.74 538.13 L 591.47 538.25 L 591.20 538.38 L 590.94 538.51 L 590.67 538.64 L 590.41 538.77 L 590.14 538.90 L 589.88 539.04 L 589.62 539.18 L 589.36 539.32 L 589.10 539.46 L 588.84 539.61 L 588.58 539.75 L 588.32 539.90 L 588.07 540.06 L 587.81 540.21 L 587.56 540.37 L 587.30 540.52 L 587.05 540.68 L 586.80 540.85 L 586.55 541.01 L 586.30 541.18 L 586.05 541.35 L 585.81 541.52 L 585.56 541.69 L 585.32 541.87 L 585.08 542.04 L 584.84 542.22 L 584.60 542.40 L 584.36 542.59 L 584.12 542.77 L 583.88 542.96 L 583.65 543.15 L 583.41 543.34 L 583.18 543.53 L 582.95 543.73 L 582.72 543.93 L 582.49 544.13 L 582.27 544.33 L 582.04 544.53 L 581.82 544.74 L 581.60 544.94 L 581.38 545.15 L 581.16 545.36 L 580.94 545.58 L 580.72 545.79 L 580.51 546.01 L 580.30 546.23 L 580.08 546.45 L 579.87 546.67 L 579.67 546.89 L 579.46 547.12 L 579.26 547.35 L 579.05 547.58 L 578.85 547.81 L 578.65 548.04 L 578.45 548.28 L 578.26 548.51 L 578.06 548.75 L 577.87 548.99 L 577.69 549.21 L 577.51 549.44 L 577.33 549.67 L 577.16 549.90 L 576.98 550.14 L 576.81 550.37 L 576.63 550.61 L 576.46 550.85 L 576.30 551.09 L 576.13 551.33 L 575.96 551.57 L 575.80 551.81 L 575.64 552.06 L 575.48 552.30 L 575.32 552.55 L 575.16 552.80 L 575.01 553.05 L 574.86 553.30 L 574.70 553.56 L 574.55 553.81 L 574.41 554.07 L 574.26 554.32 L 574.12 554.58 L 573.98 554.84 L 573.84 555.10 L 573.70 555.36 L 573.56 555.63 L 573.43 555.89 L 573.29 556.16 L 573.16 556.43 L 573.03 556.69 L 572.91 556.96 L 572.78 557.23 L 572.66 557.51 L 572.54 557.78 L 572.42 558.05 L 572.30 558.33 L 572.19 558.60 L 572.07 558.88 L 571.96 559.16 L 571.85 559.44 L 571.75 559.72 L 571.64 560.00 L 571.54 560.28 L 571.44 560.57 L 571.34 560.85 L 571.24 561.13 L 571.15 561.42 L 571.05 561.71 L 570.96 562.00 L 570.87 562.28 L 570.79 562.57 L 570.70 562.86 L 570.62 563.16 L 570.54 563.45 L 570.46 563.74 L 570.39 564.04 L 570.32 564.33 L 570.24 564.63 L 570.18 564.92 L 570.11 565.22 L 570.04 565.52 L 569.98 565.81 L 569.92 566.11 L 569.86 566.41 L 569.81 566.71 L 569.75 567.01 L 569.70 567.32 L 569.65 567.62 L 569.61 567.92 L 569.56 568.22 L 569.52 568.53 L 569.48 568.83 L 569.44 569.14 L 569.41 569.44 L 569.37 569.75 L 569.34 570.05 L 569.31 570.36 L 569.29 570.67 L 569.26 570.98 L 569.24 571.28 L 569.22 571.59 L 569.20 571.90 L 569.19 572.19 L 569.17 572.49 L 569.16 572.78 L 569.15 573.07 L 569.15 573.36 L 569.14 573.66 L 569.14 573.95 L 569.14 574.25 L 569.14 574.54 L 569.14 574.83 L 569.14 575.13 L 569.15 575.42 L 569.16 575.72 L 569.17 576.01 L 569.19 576.31 L 569.20 576.60 L 569.22 576.90 L 569.24 577.19 L 569.26 577.49 L 569.28 577.78 L 569.31 578.08 L 569.34 578.38 L 569.37 578.67 L 569.40 578.97 L 569.44 579.26 L 569.47 579.56 L 569.51 579.85 L 569.55 580.15 L 569.60 580.44 L 569.64 580.74 L 569.69 581.04 L 569.74 581.33 L 569.79 581.62 L 569.85 581.92 L 569.90 582.21 L 569.96 582.51 L 570.02 582.80 L 570.08 583.10 L 570.15 583.39 L 570.21 583.68 L 570.28 583.98 L 570.35 584.27 L 570.43 584.56 L 570.50 584.85 L 570.58 585.15 L 570.66 585.44 L 570.74 585.73 L 570.83 586.02 L 570.91 586.31 L 571.00 586.60 L 571.09 586.89 L 571.18 587.18 L 571.28 587.47 L 571.37 587.76 L 571.47 588.04 L 571.57 588.33 L 571.68 588.62 L 571.78 588.91 L 571.89 589.19 L 572.00 589.48 L 572.11 589.76 L 572.22 590.05 L 572.34 590.33 L 572.46 590.61 L 572.58 590.89 L 572.70 591.17 L 572.82 591.46 L 572.95 591.74 L 573.08 592.02 L 573.21 592.29 L 573.34 592.57 L 573.47 592.85 L 573.61 593.13 L 573.75 593.40 L 573.89 593.68 L 574.03 593.95 L 574.18 594.22 L 574.32 594.50 L 574.47 594.77 L 574.62 595.04 L 574.78 595.31 L 574.93 595.58 L 575.09 595.85 L 575.24 596.10 L 575.39 596.36 L 575.54 596.61 L 575.70 596.86 L 575.85 597.11 L 576.01 597.36 L 576.17 597.61 L 576.33 597.85 L 576.50 598.10 L 576.66 598.34 L 576.83 598.59 L 577.00 598.83 L 577.17 599.08 L 577.34 599.32 L 577.51 599.56 L 577.69 599.80 L 577.86 600.04 L 578.04 600.27 L 578.22 600.51 L 578.41 600.75 L 578.59 600.98 L 578.78 601.21 L 578.96 601.45 L 579.15 601.68 L 579.34 601.91 L 579.54 602.14 L 579.73 602.36 L 579.93 602.59 L 580.12 602.82 L 580.32 603.04 L 580.52 603.26 L 580.72 603.49 L 580.93 603.71 L 581.13 603.93 L 581.34 604.14 L 581.55 604.36 L 581.76 604.58 L 581.97 604.79 L 582.19 605.01 L 582.40 605.22 L 582.62 605.43 L 582.84 605.64 L 583.06 605.85 L 583.28 606.05 L 583.50 606.26 L 583.73 606.46 L 583.95 606.67 L 584.18 606.87 L 584.41 607.07 L 584.64 607.27 L 584.87 607.46 L 585.11 607.66 L 585.34 607.85 L 585.58 608.05 L 585.82 608.24 L 586.06 608.43 L 586.30 608.62 L 586.54 608.80 L 586.79 608.99 L 587.03 609.17 L 587.28 609.35 L 587.53 609.54 L 587.78 609.71 L 588.03 609.89 L 588.28 610.07 L 588.53 610.24 L 588.79 610.42 L 589.05 610.59 L 589.30 610.76 L 589.56 610.93 L 589.82 611.09 L 590.08 611.26 L 590.35 611.42 L 590.61 611.58 L 590.88 611.74 L 591.15 611.90 L 591.41 612.06 L 591.68 612.21 L 591.95 612.37 L 592.23 612.52 L 592.50 612.67 L 592.77 612.82 L 593.05 612.96 L 593.32 613.11 L 593.58 613.24 L 593.84 613.38 L 594.11 613.51 L 594.37 613.64 L 594.64 613.77 L 594.90 613.90 L 595.17 614.03 L 595.44 614.16 L 595.71 614.28 L 595.98 614.40 L 596.25 614.52 L 596.53 614.64 L 596.80 614.76 L 597.07 614.88 L 597.35 614.99 L 597.63 615.10 L 597.90 615.21 L 598.18 615.32 L 598.46 615.43 L 598.74 615.54 L 599.02 615.64 L 599.30 615.74 L 599.59 615.84 L 599.87 615.94 L 600.15 616.04 L 600.44 616.14 L 600.72 616.23 L 601.01 616.32 L 601.30 616.41 L 601.59 616.50 L 601.88 616.59 L 602.16 616.67 L 602.46 616.75 L 602.75 616.84 L 603.04 616.92 L 603.33 616.99 L 603.62 617.07 L 603.92 617.14 L 604.21 617.22 L 604.51 617.29 L 604.81 617.36 L 605.10 617.42 L 605.40 617.49 L 605.70 617.55 L 606.00 617.61 L 606.30 617.67 L 606.60 617.73 L 606.90 617.79 L 607.20 617.84 L 607.50 617.89 L 607.80 617.94 L 608.10 617.99 L 608.41 618.04 L 608.71 618.08 L 609.01 618.12 L 609.32 618.16 L 609.62 618.20 L 609.93 618.24 L 610.23 618.27 L 610.54 618.31 L 610.85 618.34 L 611.16 618.37 L 611.46 618.40 L 611.77 618.42 L 612.08 618.44 L 612.39 618.47 L 612.70 618.49 L 613.01 618.50 L 613.32 618.52 L 613.63 618.53 L 613.94 618.54 L 614.25 618.55 L 614.56 618.56 L 614.87 618.57 L 615.18 618.57 L 615.50 618.57 L 615.81 618.57 L 616.12 618.57 L 616.43 618.57 L 616.75 618.56 L 617.06 618.55 L 617.37 618.54 L 617.68 618.53 L 617.98 618.52 L 618.28 618.51 L 618.57 618.49 L 618.87 618.48 L 619.17 618.46 L 619.46 618.44 L 619.76 618.42 L 620.06 618.39 L 620.35 618.37 L 620.65 618.34 L 620.95 618.31 L 621.25 618.28 L 621.54 618.25 L 621.84 618.21 L 622.14 618.18 L 622.43 618.14 L 622.73 618.10 L 623.03 618.06 L 623.33 618.01 L 623.62 617.97 L 623.92 617.92 L 624.22 617.87 L 624.51 617.82 L 624.81 617.77 L 625.11 617.71 L 625.40 617.66 L 625.70 617.60 L 626.00 617.54 L 626.29 617.48 L 626.59 617.41 L 626.89 617.35 L 627.18 617.28 L 627.48 617.21 L 627.77 617.14 L 628.07 617.07 L 628.36 616.99 L 628.66 616.92 L 628.95 616.84 L 629.24 616.76 L 629.54 616.68 L 629.83 616.59 L 630.13 616.51 L 630.42 616.42 L 630.71 616.33 L 631.00 616.24 L 631.30 616.15 L 631.59 616.05 L 631.88 615.96 L 632.17 615.86 L 632.46 615.76 L 632.75 615.66 L 633.04 615.55 L 633.33 615.45 L 633.62 615.34 L 633.91 615.23 L 634.19 615.12 L 634.48 615.01 L 634.77 614.90 L 635.06 614.78 L 635.34 614.66 L 635.63 614.54 L 635.91 614.42 L 636.20 614.30 L 636.48 614.17 L 636.76 614.04 L 637.05 613.92 L 637.33 613.78 L 637.61 613.65 L 637.89 613.52 L 638.17 613.38 L 638.45 613.24 L 638.73 613.11 L 639.01 612.96 L 639.29 612.82 L 639.57 612.68 L 639.84 612.53 L 640.12 612.38 L 640.39 612.23 L 640.67 612.08 L 640.94 611.93 L 641.22 611.77 L 641.49 611.61 L 641.76 611.45 L 642.02 611.30 L 642.28 611.15 L 642.53 611.00 L 642.79 610.84 L 643.04 610.69 L 643.30 610.53 L 643.55 610.37 L 643.80 610.21 L 644.05 610.05 L 644.31 609.88 L 644.56 609.72 L 644.80 609.55 L 645.05 609.38 L 645.30 609.21 L 645.55 609.04 L 645.79 608.87 L 646.04 608.69 L 646.28 608.52 L 646.53 608.34 L 646.77 608.16 L 647.01 607.98 L 647.25 607.80 L 647.49 607.61 L 647.73 607.43 L 647.97 607.24 L 648.21 607.06 L 648.45 606.87 L 648.68 606.67 L 648.92 606.48 L 649.15 606.29 L 649.39 606.09 L 649.62 605.90 L 649.85 605.70 L 650.08 605.50 L 650.31 605.30 L 650.54 605.09 L 650.76 604.89 L 650.99 604.69 L 651.22 604.48 L 651.44 604.27 L 651.66 604.06 L 651.89 603.85 L 652.11 603.64 L 652.33 603.42 L 652.55 603.21 L 652.77 602.99 L 652.98 602.77 L 653.20 602.55 L 653.41 602.33 L 653.63 602.11 L 653.84 601.89 L 654.05 601.66 L 654.26 601.44 L 654.47 601.21 L 654.68 600.98 L 654.89 600.75 L 655.09 600.52 L 655.30 600.28 L 655.50 600.05 L 655.70 599.81 L 655.91 599.58 L 656.11 599.34 L 656.30 599.10 L 656.50 598.86 L 656.70 598.61 L 656.89 598.37 L 657.09 598.13 L 657.28 597.88 L 657.47 597.63 L 657.66 597.38 L 657.85 597.13 L 658.04 596.88 L 658.22 596.63 L 658.41 596.38 L 658.59 596.12 L 658.78 595.87 L 658.96 595.61 L 659.14 595.35 L 659.31 595.09 L 659.49 594.83 L 659.67 594.57 L 659.84 594.31 L 660.02 594.04 L 660.18 593.78 L 660.35 593.53 L 660.51 593.28 L 660.67 593.03 L 660.83 592.77 L 660.99 592.52 L 661.14 592.26 L 661.30 592.00 L 661.45 591.75 L 661.61 591.49 L 661.76 591.23 L 661.91 590.97 L 662.06 590.70 L 662.20 590.44 L 662.35 590.18 L 662.50 589.91 L 662.64 589.65 L 662.78 589.38 L 662.92 589.11 L 663.06 588.84 L 663.20 588.57 L 663.34 588.30 L 663.47 588.03 L 663.61 587.76 L 663.74 587.49 L 663.87 587.21 L 664.00 586.94 L 664.13 586.66 L 664.26 586.38 L 664.39 586.11 L 664.51 585.83 L 664.64 585.55 L 664.76 585.27 L 664.88 584.99 L 665.00 584.70 L 665.12 584.42 L 665.23 584.14 L 665.35 583.85 L 665.46 583.57 L 665.57 583.28 L 665.68 582.99 L 665.79 582.71 L 665.90 582.42 L 666.01 582.13 L 666.11 581.84 L 666.21 581.55 L 666.32 581.26 L 666.42 580.96 L 666.52 580.67 L 666.61 580.38 L 666.71 580.08 L 666.80 579.79 L 666.90 579.49 L 666.99 579.19 L 667.08 578.90 L 667.17 578.60 L 667.25 578.30 L 667.34 578.00 L 667.42 577.70 L 667.50 577.40 L 667.58 577.10 L 667.66 576.79 L 667.74 576.49 L 667.82 576.19 L 667.89 575.88 L 667.96 575.58 L 668.03 575.27 L 668.10 574.97 L 668.17 574.66 L 668.24 574.36 L 668.30 574.05 L 668.37 573.74 L 668.43 573.43 L 668.49 573.12 L 668.55 572.81 L 668.60 572.50 L 668.66 572.19 L 668.71 571.88 L 668.76 571.57 L 668.81 571.25 L 668.86 570.94 L 668.91 570.63 L 668.96 570.31 L 669.00 570.00 L 669.04 569.70 L 669.08 569.41 L 669.12 569.11 L 669.16 568.81 L 669.20 568.51 L 669.23 568.21 L 669.26 567.91 L 669.30 567.61 L 669.33 567.31 L 669.36 567.01 L 669.38 566.71 L 669.41 566.41 L 669.43 566.11 L 669.46 565.80 L 669.48 565.50 L 669.50 565.20 L 669.52 564.90 L 669.53 564.59 L 669.55 564.29 L 669.56 563.98 L 669.57 563.68 L 669.59 563.38 L 669.59 563.07 L 669.60 562.77 L 669.61 562.46 L 669.61 562.16 L 669.62 561.85 L 669.62 561.54 L 669.62 561.24 L 669.62 560.93 L 669.61 560.62 L 669.61 560.32 L 669.60 560.01 L 669.60 559.70 L 669.59 559.39 L 669.58 559.09 L 669.56 558.78 L 669.55 558.47 L 669.53 558.16 L 669.52 557.85 L 669.50 557.55 L 669.48 557.24 L 669.46 556.93 L 669.43 556.62 L 669.41 556.31 L 669.38 556.00 L 669.35 555.69 L 669.32 555.38 L 669.29 555.08 L 669.26 554.77 L 669.23 554.46 L 669.19 554.15 L 669.15 553.84 L 669.11 553.53 L 669.07 553.22 L 669.03 552.91 L 668.99 552.60 L 668.94 552.29 L 668.89 551.98 L 668.84 551.67 L 668.79 551.36 L 668.74 551.05 L 668.69 550.74 L 668.63 550.43 L 668.58 550.12 L 668.52 549.82 L 668.46 549.51 L 668.40 549.20 L 668.33 548.89 L 668.27 548.58 L 668.20 548.27 L 668.14 547.96 L 668.07 547.65 L 668.00 547.35 L 667.92 547.04 L 667.85 546.73 L 667.77 546.42 L 667.70 546.11 L 667.62 545.81 L 667.54 545.50 L 667.45 545.19 L 667.37 544.88 L 667.28 544.58 L 667.20 544.28 L 667.12 543.99 L 667.04 543.70 L 666.95 543.41 L 666.87 543.12 L 666.78 542.83 L 666.69 542.54 L 666.60 542.25 L 666.51 541.96 L 666.42 541.68 L 666.32 541.39 L 666.23 541.10 L 666.13 540.81 L 666.03 540.52 L 665.93 540.24 L 665.83 539.95 L 665.73 539.66 L 665.62 539.38 L 665.52 539.09 L 665.41 538.80 L 665.30 538.52 L 665.19 538.23 L 665.08 537.95 L 664.97 537.66 L 664.85 537.38 L 664.74 537.09 L 664.62 536.81 L 664.50 536.53 L 664.38 536.24 L 664.26 535.96 L 664.14 535.68 L 664.01 535.40 L 663.88 535.12 L 663.76 534.83 L 663.63 534.55 L 663.50 534.27 L 663.37 533.99 L 663.23 533.71 L 663.10 533.44 L 662.96 533.16 L 662.83 532.88 L 662.69 532.60 L 662.55 532.32 L 662.41 532.05 L 662.26 531.77 L 662.12 531.50 L 661.97 531.22 L 661.83 530.95 L 661.68 530.67 L 661.53 530.40 L 661.38 530.12 L 661.22 529.85 L 661.07 529.58 L 660.91 529.31 L 660.76 529.04 L 660.60 528.77 L 660.44 528.50 L 660.28 528.23 L 660.11 527.96 L 659.95 527.69 L 659.78 527.42 L 659.62 527.16 L 659.45 526.89 L 659.28 526.62 L 659.11 526.36 L 658.94 526.09 L 658.76 525.83 L 658.59 525.57 L 658.41 525.30 L 658.23 525.04 L 658.05 524.78 L 657.87 524.52 L 657.69 524.26 L 657.51 524.00 L 657.32 523.74 L 657.14 523.48 L 656.95 523.23 L 656.76 522.97 L 656.57 522.71 L 656.38 522.46 L 656.18 522.20 L 655.99 521.95 L 655.79 521.70 L 655.60 521.45 L 655.42 521.21 L 655.23 520.97 L 655.04 520.73 L 654.85 520.50 L 654.66 520.26 L 654.47 520.02 L 654.28 519.79 L 654.09 519.55 L 653.89 519.32 L 653.70 519.09 L 653.50 518.85 L 653.30 518.62 L 653.10 518.39 L 652.90 518.16 L 652.70 517.93 L 652.49 517.70 L 652.29 517.48 L 652.09 517.25 L 651.88 517.02 L 651.67 516.80 L 651.46 516.57 L 651.25 516.35 L 651.04 516.12 L 650.83 515.90 L 650.61 515.68 L 650.40 515.46 L 650.18 515.24 L 649.97 515.02 L 649.75 514.80 L 649.53 514.58 L 649.31 514.37 L 649.09 514.15 L 648.86 513.93 L 648.64 513.72 L 648.42 513.51 L 648.19 513.29 L 647.96 513.08 L 647.73 512.87 L 647.51 512.66 L 647.27 512.45 L 647.04 512.24 L 646.81 512.04 L 646.58 511.83 L 646.34 511.62 L 646.11 511.42 L 645.87 511.21 L 645.63 511.01 L 645.39 510.81 L 645.15 510.61 L 644.91 510.41 L 644.67 510.21 L 644.42 510.01 L 644.18 509.81 L 643.93 509.62 L 643.69 509.42 L 643.44 509.23 L 643.19 509.04 L 642.94 508.84 L 642.69 508.65 L 642.44 508.46 L 642.18 508.27 L 641.93 508.08 L 641.68 507.90 L 641.42 507.71 L 641.16 507.52 L 640.90 507.34 L 640.64 507.16 L 640.38 506.97 L 640.12 506.79 L 639.86 506.61 L 639.60 506.43 L 639.33 506.25 L 639.07 506.08 L 638.80 505.90 L 638.54 505.73 L 638.27 505.55 L 638.00 505.38 L 637.73 505.21 L 637.46 505.04 L 637.19 504.87 L 636.91 504.70 L 636.64 504.53 L 636.37 504.37 L 635.83 504.10 L 635.29 503.83 L 634.74 503.57 L 634.20 503.32 L 633.65 503.07 L 633.10 502.82 L 632.55 502.58 L 631.99 502.34 L 631.43 502.11 L 630.87 501.88 L 630.31 501.66 L 629.75 501.44 L 629.18 501.23 L 628.61 501.02 L 628.04 500.81 L 627.46 500.61 L 626.89 500.42 L 626.31 500.22 L 625.73 500.04 L 625.15 499.86 L 624.56 499.68 L 623.98 499.51 L 623.39 499.34 L 622.80 499.18 L 622.21 499.02 L 621.62 498.87 L 621.02 498.72 L 620.43 498.58 L 619.83 498.44 L 619.23 498.31 L 618.63 498.18 L 618.03 498.06 L 617.42 497.94 L 616.82 497.83 L 616.21 497.73 L 615.60 497.62 L 615.00 497.53 L 614.39 497.43 L 613.77 497.35 L 613.16 497.26 L 612.55 497.19 L 611.93 497.12 L 611.32 497.05 L 610.70 496.99 L 610.08 496.93 L 609.46 496.88 L 608.84 496.84 L 608.22 496.80 L 607.60 496.76 L 606.98 496.73 L 606.36 496.71 L 605.73 496.69 L 605.11 496.67 L 604.49 496.66 L 603.86 496.66 L 603.23 496.66 L 602.61 496.67 L 601.98 496.68 L 601.36 496.70 L 600.73 496.72 L 600.10 496.75 L 599.48 496.78 L 598.85 496.82 L 598.22 496.87 L 597.59 496.92 L 596.97 496.97 L 596.34 497.03 L 595.71 497.10 L 595.08 497.17 L 594.46 497.25 L 593.83 497.33 L 593.20 497.41 L 592.58 497.51 L 591.95 497.60 L 591.33 497.71 L 590.70 497.82 L 590.08 497.93 L 589.45 498.05 L 588.83 498.17 L 588.21 498.30 L 587.58 498.44 L 586.96 498.58 L 586.34 498.73 L 585.74 498.87 L 585.16 499.02 L 584.57 499.17 L 583.99 499.32 L 583.41 499.48 L 582.83 499.64 L 582.24 499.81 L 581.66 499.99 L 581.08 500.16 L 580.51 500.35 L 579.93 500.53 L 579.35 500.73 L 578.78 500.92 L 578.20 501.13 L 577.63 501.33 L 577.06 501.54 L 576.49 501.76 L 575.92 501.98 L 575.36 502.21 L 574.79 502.44 L 574.22 502.67 L 573.66 502.91 L 573.10 503.16 L 572.54 503.41 L 571.98 503.66 L 571.43 503.92 L 570.87 504.18 L 570.32 504.45 L 569.77 504.72 L 569.22 505.00 L 568.67 505.28 L 568.12 505.56 L 567.58 505.85 L 567.04 506.15 L 566.50 506.45 L 565.96 506.75 L 565.42 507.06 L 564.89 507.37 L 564.36 507.69 L 563.83 508.01 L 563.30 508.34 L 562.78 508.67 L 562.25 509.01 L 561.73 509.35 L 561.21 509.69 L 560.70 510.04 L 560.19 510.39 L 559.68 510.75 L 559.17 511.11 L 558.66 511.48 L 558.16 511.85 L 557.66 512.22 L 557.16 512.60 L 556.66 512.98 L 556.17 513.37 L 555.68 513.76 L 555.19 514.16 L 554.71 514.56 L 554.23 514.96 L 553.75 515.37 L 553.28 515.78 L 552.80 516.20 L 552.33 516.62 L 551.87 517.04 L 551.40 517.47 L 550.94 517.90 L 550.49 518.34 L 550.03 518.78 L 549.58 519.22 L 549.13 519.67 L 548.69 520.12 L 548.25 520.58 L 547.81 521.04 L 547.38 521.50 L 546.95 521.97 L 546.52 522.44 L 546.10 522.91 L 545.68 523.39 L 545.26 523.87 L 544.85 524.36 L 544.44 524.85 L 544.03 525.34 L 543.63 525.84 L 543.23 526.33 L 542.86 526.80 L 542.49 527.28 L 542.12 527.76 L 541.75 528.24 L 541.39 528.73 L 541.03 529.22 L 540.68 529.71 L 540.32 530.21 L 539.98 530.70 L 539.63 531.20 L 539.29 531.71 L 538.95 532.22 L 538.62 532.73 L 538.29 533.24 L 537.96 533.75 L 537.64 534.27 L 537.32 534.79 L 537.00 535.32 L 536.69 535.85 L 536.38 536.38 L 536.08 536.91 L 535.78 537.44 L 535.48 537.98 L 535.19 538.52 L 534.90 539.06 L 534.61 539.61 L 534.33 540.16 L 534.05 540.71 L 533.78 541.26 L 533.51 541.81 L 533.24 542.37 L 532.98 542.93 L 532.72 543.49 L 532.47 544.06 L 532.22 544.63 L 531.98 545.20 L 531.74 545.77 L 531.50 546.34 L 531.27 546.92 L 531.04 547.50 L 530.81 548.08 L 530.59 548.66 L 530.38 549.24 L 530.17 549.83 L 529.96 550.42 L 529.76 551.01 L 529.56 551.60 L 529.36 552.19 L 529.17 552.79 L 528.99 553.39 L 528.81 553.99 L 528.63 554.59 L 528.46 555.19 L 528.29 555.80 L 528.13 556.41 L 527.97 557.01 L 527.81 557.62 L 527.66 558.24 L 527.52 558.85 L 527.37 559.46 L 527.24 560.08 L 527.11 560.70 L 526.98 561.32 L 526.86 561.94 L 526.74 562.56 L 526.62 563.18 L 526.52 563.81 L 526.41 564.43 L 526.31 565.06 L 526.22 565.69 L 526.13 566.32 L 526.04 566.95 L 525.96 567.58 L 525.88 568.21 L 525.81 568.84 L 525.74 569.48 L 525.68 570.11 L 525.63 570.75 L 525.57 571.39 L 525.53 572.02 L 525.48 572.66 L 525.44 573.30 L 525.41 573.94 L 525.38 574.55 L 525.35 575.15 L 525.33 575.76 L 525.31 576.37 L 525.30 576.98 L 525.29 577.58 L 525.29 578.19 L 525.29 578.80 L 525.29 579.41 L 525.30 580.02 L 525.31 580.63 L 525.33 581.24 L 525.35 581.85 L 525.38 582.46 L 525.41 583.07 L 525.44 583.69 L 525.48 584.30 L 525.52 584.91 L 525.57 585.52 L 525.62 586.13 L 525.68 586.75 L 525.74 587.36 L 525.81 587.97 L 525.88 588.58 L 525.95 589.19 L 526.03 589.81 L 526.11 590.42 L 526.20 591.03 L 526.29 591.64 L 526.39 592.25 L 526.49 592.86 L 526.59 593.47 L 526.70 594.08 L 526.82 594.69 L 526.93 595.30 L 527.06 595.91 L 527.18 596.52 L 527.32 597.13 L 527.45 597.74 L 527.59 598.34 L 527.74 598.95 L 527.89 599.56 L 528.04 600.16 L 528.20 600.77 L 528.36 601.37 L 528.53 601.97 L 528.70 602.58 L 528.87 603.18 L 529.05 603.78 L 529.24 604.38 L 529.43 604.98 L 529.62 605.57 L 529.82 606.17 L 530.02 606.77 L 530.23 607.36 L 530.44 607.96 L 530.65 608.55 L 530.87 609.14 L 531.10 609.73 L 531.33 610.32 L 531.56 610.91 L 531.80 611.50 L 532.04 612.08 L 532.28 612.67 L 532.53 613.25 L 532.79 613.83 L 533.05 614.41 L 533.31 614.99 L 533.58 615.57 L 533.85 616.14 L 534.12 616.72 L 534.40 617.29 L 534.69 617.86 L 534.98 618.43 L 535.27 619.00 L 535.57 619.56 L 535.87 620.13 L 536.18 620.69 L 536.49 621.25 L 536.80 621.81 L 537.12 622.37 L 537.44 622.92 L 537.77 623.48 L 538.08 624.01 L 538.40 624.53 L 538.71 625.05 L 539.03 625.57 L 539.36 626.08 L 539.69 626.60 L 540.02 627.11 L 540.35 627.62 L 540.69 628.13 L 541.04 628.63 L 541.38 629.14 L 541.73 629.64 L 542.09 630.14 L 542.44 630.64 L 542.80 631.13 L 543.17 631.63 L 543.54 632.12 L 543.91 632.61 L 544.28 633.10 L 544.66 633.58 L 545.04 634.07 L 545.43 634.55 L 545.82 635.03 L 546.21 635.50 L 546.61 635.98 L 547.01 636.45 L 547.41 636.92 L 547.82 637.39 L 548.23 637.85 L 548.64 638.31 L 549.06 638.77 L 549.48 639.23 L 549.90 639.68 L 550.33 640.14 L 550.76 640.59 L 551.19 641.03 L 551.63 641.48 L 552.07 641.92 L 552.51 642.36 L 552.96 642.80 L 553.41 643.23 L 553.86 643.66 L 554.31 644.09 L 554.77 644.52 L 555.24 644.94 L 555.70 645.36 L 556.17 645.78 L 556.64 646.19 L 557.12 646.60 L 557.60 647.01 L 558.08 647.42 L 558.56 647.82 L 559.05 648.22 L 559.54 648.62 L 560.03 649.01 L 560.53 649.40 L 561.03 649.79 L 561.53 650.17 L 562.04 650.55 L 562.55 650.93 L 563.06 651.31 L 563.57 651.68 L 564.09 652.05 L 564.61 652.41 L 565.13 652.77 L 565.66 653.13 L 566.18 653.49 L 566.72 653.84 L 567.25 654.19 L 567.79 654.54 L 568.32 654.88 L 568.87 655.22 L 569.41 655.55 L 569.96 655.89 L 570.51 656.21 L 571.06 656.54 L 571.61 656.86 L 572.17 657.18 L 572.73 657.49 L 573.29 657.81 L 573.86 658.11 L 574.43 658.42 L 575.00 658.72 L 575.56 659.01 L 576.10 659.29 L 576.64 659.57 L 577.18 659.84 L 577.73 660.11 L 578.28 660.38 L 578.83 660.64 L 579.39 660.90 L 579.94 661.16 L 580.50 661.42 L 581.06 661.67 L 581.62 661.91 L 582.18 662.16 L 582.75 662.40 L 583.32 662.64 L 583.89 662.87 L 584.46 663.10 L 585.03 663.33 L 585.60 663.55 L 586.18 663.77 L 586.76 663.99 L 587.34 664.20 L 587.92 664.41 L 588.51 664.61 L 589.09 664.81 L 589.68 665.01 L 590.27 665.21 L 590.86 665.40 L 591.45 665.59 L 592.04 665.77 L 592.64 665.95 L 593.23 666.13 L 593.83 666.30 L 594.43 666.47 L 595.03 666.64 L 595.64 666.80 L 596.24 666.96 L 596.85 667.11 L 597.45 667.26 L 598.06 667.41 L 598.67 667.55 L 599.28 667.69 L 599.90 667.83 L 600.51 667.96 L 601.12 668.09 L 601.74 668.21 L 602.36 668.33 L 602.98 668.45 L 603.60 668.56 L 604.22 668.67 L 604.84 668.78 L 605.46 668.88 L 606.09 668.98 L 606.71 669.07 L 607.34 669.16 L 607.97 669.25 L 608.59 669.33 L 609.22 669.41 L 609.85 669.48 L 610.48 669.55 L 611.12 669.62 L 611.75 669.68 L 612.38 669.74 L 613.02 669.79 L 613.65 669.84 L 614.29 669.89 L 614.93 669.93 L 615.56 669.97 L 616.20 670.00 L 616.84 670.03 L 617.48 670.06 L 618.12 670.08 L 618.76 670.10 L 619.40 670.11 L 620.04 670.12 L 620.69 670.13 L 621.33 670.13 L 621.97 670.13 L 622.61 670.12 L 623.26 670.11 L 623.90 670.09 L 624.55 670.07 L 625.19 670.05 L 625.84 670.02 L 626.45 670.00 L 627.06 669.97 L 627.67 669.94 L 628.28 669.90 L 628.89 669.86 L 629.50 669.82 L 630.11 669.77 L 630.73 669.72 L 631.34 669.67 L 631.95 669.61 L 632.56 669.54 L 633.17 669.48 L 633.78 669.41 L 634.40 669.34 L 635.01 669.26 L 635.62 669.18 L 636.23 669.09 L 636.84 669.01 L 637.45 668.91 L 638.07 668.82 L 638.68 668.72 L 639.29 668.62 L 639.90 668.51 L 640.51 668.40 L 641.12 668.28 L 641.73 668.17 L 642.34 668.04 L 642.95 667.92 L 643.56 667.79 L 644.17 667.66 L 644.78 667.52 L 645.39 667.38 L 645.99 667.24 L 646.60 667.09 L 647.21 666.94 L 647.81 666.78 L 648.42 666.62 L 649.03 666.46 L 649.63 666.29 L 650.23 666.12 L 650.84 665.95 L 651.44 665.77 L 652.04 665.59 L 652.65 665.40 L 653.25 665.21 L 653.85 665.02 L 654.45 664.82 L 655.05 664.62 L 655.64 664.42 L 656.24 664.21 L 656.84 664.00 L 657.43 663.79 L 658.03 663.57 L 658.62 663.34 L 659.21 663.12 L 659.81 662.89 L 660.40 662.65 L 660.99 662.42 L 661.58 662.18 L 662.16 661.93 L 662.75 661.68 L 663.34 661.43 L 663.92 661.17 L 664.50 660.91 L 665.09 660.65 L 665.67 660.38 L 666.25 660.11 L 666.83 659.84 L 667.40 659.56 L 667.98 659.28 L 668.56 659.00 L 669.13 658.71 L 669.70 658.41 L 670.27 658.12 L 670.84 657.82 L 671.41 657.51 L 671.98 657.21 L 672.54 656.90 L 673.11 656.58 L 673.67 656.27 L 674.23 655.94 L 674.79 655.62 L 675.35 655.29 L 675.88 654.97 L 676.41 654.66 L 676.93 654.34 L 677.46 654.02 L 677.98 653.70 L 678.50 653.38 L 679.02 653.05 L 679.54 652.71 L 680.05 652.38 L 680.57 652.04 L 681.08 651.70 L 681.59 651.35 L 682.10 651.01 L 682.61 650.65 L 683.12 650.30 L 683.62 649.94 L 684.12 649.58 L 684.63 649.22 L 685.13 648.85 L 685.62 648.48 L 686.12 648.11 L 686.61 647.73 L 687.11 647.35 L 687.60 646.97 L 688.09 646.59 L 688.57 646.20 L 689.06 645.81 L 689.54 645.41 L 690.03 645.02 L 690.50 644.62 L 690.98 644.21 L 691.46 643.81 L 691.93 643.40 L 692.40 642.99 L 692.87 642.57 L 693.34 642.15 L 693.81 641.73 L 694.27 641.31 L 694.73 640.88 L 695.19 640.45 L 695.65 640.02 L 696.11 639.58 L 696.56 639.15 L 697.01 638.71 L 697.46 638.26 L 697.91 637.81 L 698.35 637.36 L 698.79 636.91 L 699.23 636.46 L 699.67 636.00 L 700.11 635.54 L 700.54 635.07 L 700.97 634.61 L 701.40 634.14 L 701.83 633.67 L 702.25 633.19 L 702.67 632.71 L 703.09 632.23 L 703.51 631.75 L 703.92 631.27 L 704.33 630.78 L 704.74 630.29 L 705.15 629.79 L 705.55 629.30 L 705.95 628.80 L 706.35 628.30 L 706.75 627.79 L 707.14 627.28 L 707.54 626.78 L 707.92 626.26 L 708.31 625.75 L 708.69 625.23 L 709.07 624.71 L 709.45 624.19 L 709.83 623.67 L 710.20 623.14 L 710.57 622.61 L 710.94 622.08 L 711.30 621.54 L 711.67 621.01 L 712.02 620.47 L 712.38 619.93 L 712.73 619.38 L 713.08 618.85 L 713.41 618.33 L 713.74 617.81 L 714.07 617.29 L 714.39 616.77 L 714.72 616.25 L 715.04 615.72 L 715.35 615.19 L 715.67 614.66 L 715.98 614.13 L 716.29 613.59 L 716.60 613.06 L 716.90 612.52 L 717.20 611.98 L 717.50 611.43 L 717.80 610.89 L 718.09 610.34 L 718.38 609.79 L 718.67 609.24 L 718.95 608.69 L 719.24 608.14 L 719.52 607.58 L 719.79 607.02 L 720.07 606.46 L 720.34 605.90 L 720.61 605.34 L 720.87 604.77 L 721.13 604.20 L 721.39 603.64 L 721.65 603.06 L 721.91 602.49 L 722.16 601.92 L 722.41 601.34 L 722.65 600.76 L 722.89 600.18 L 723.13 599.60 L 723.37 599.02 L 723.60 598.43 L 723.84 597.85 L 724.06 597.26 L 724.29 596.67 L 724.51 596.08 L 724.73 595.49 L 724.94 594.89 L 725.16 594.30 L 725.37 593.70 L 725.57 593.10 L 725.78 592.50 L 725.98 591.90 L 726.18 591.29 L 726.37 590.69 L 726.56 590.08 L 726.75 589.47 L 726.94 588.87 L 727.12 588.25 L 727.30 587.64 L 727.47 587.03 L 727.65 586.41 L 727.82 585.80 L 727.98 585.18 L 728.14 584.56 L 728.30 583.94 L 728.46 583.32 L 728.62 582.70 L 728.77 582.07 L 728.91 581.45 L 729.06 580.82 L 729.20 580.19 L 729.33 579.56 L 729.47 578.93 L 729.60 578.30 L 729.73 577.67 L 729.85 577.04 L 729.97 576.40 L 730.09 575.77 L 730.20 575.13 L 730.32 574.49 L 730.42 573.85 L 730.53 573.21 L 730.63 572.57 L 730.73 571.93 L 730.82 571.29 L 730.91 570.64 L 731.00 570.00 L 731.08 569.39 L 731.17 568.78 L 731.24 568.17 L 731.32 567.56 L 731.39 566.94 L 731.46 566.33 L 731.53 565.72 L 731.59 565.10 L 731.65 564.49 L 731.71 563.87 L 731.76 563.25 L 731.81 562.63 L 731.86 562.02 L 731.91 561.40 L 731.95 560.78 L 731.99 560.16 L 732.02 559.54 L 732.05 558.91 L 732.08 558.29 L 732.11 557.67 L 732.13 557.04 L 732.15 556.42 L 732.17 555.80 L 732.18 555.17 L 732.19 554.54 L 732.20 553.92 L 732.21 553.29 L 732.21 552.67 L 732.20 552.04 L 732.20 551.41 L 732.19 550.78 L 732.18 550.15 L 732.16 549.52 L 732.15 548.89 L 732.13 548.26 L 732.10 547.63 L 732.07 547.00 L 732.04 546.37 L 732.01 545.74 L 731.97 545.11 L 731.93 544.48 L 731.89 543.85 L 731.84 543.21 L 731.79 542.58 L 731.74 541.95 L 731.68 541.32 L 731.62 540.68 L 731.56 540.05 L 731.49 539.42 L 731.42 538.79 L 731.35 538.15 L 731.28 537.52 L 731.20 536.89 L 731.12 536.25 L 731.03 535.62 L 730.94 534.98 L 730.85 534.35 L 730.75 533.72 L 730.66 533.08 L 730.55 532.45 L 730.45 531.82 L 730.34 531.18 L 730.23 530.55 L 730.11 529.92 L 730.00 529.29 L 729.87 528.65 L 729.75 528.02 L 729.62 527.39 L 729.49 526.76 L 729.36 526.12 L 729.22 525.49 L 729.08 524.86 L 728.93 524.23 L 728.79 523.60 L 728.63 522.97 L 728.48 522.34 L 728.32 521.71 L 728.16 521.08 L 728.00 520.45 L 727.83 519.82 L 727.66 519.19 L 727.49 518.56 L 727.31 517.94 L 727.14 517.33 L 726.97 516.74 L 726.80 516.15 L 726.62 515.55 L 726.45 514.96 L 726.27 514.37 L 726.08 513.78 L 725.90 513.19 L 725.71 512.60 L 725.52 512.01 L 725.32 511.42 L 725.12 510.83 L 724.92 510.24 L 724.72 509.65 L 724.51 509.06 L 724.30 508.48 L 724.09 507.89 L 723.87 507.30 L 723.65 506.72 L 723.43 506.13 L 723.21 505.55 L 722.98 504.97 L 722.75 504.38 L 722.52 503.80 L 722.28 503.22 L 722.04 502.64 L 721.80 502.06 L 721.56 501.48 L 721.31 500.91 L 721.06 500.33 L 720.80 499.75 L 720.55 499.18 L 720.29 498.60 L 720.03 498.03 L 719.76 497.45 L 719.49 496.88 L 719.22 496.31 L 718.95 495.74 L 718.67 495.17 L 718.39 494.60 L 718.11 494.03 L 717.82 493.47 L 717.53 492.90 L 717.24 492.34 L 716.95 491.77 L 716.65 491.21 L 716.35 490.65 L 716.05 490.09 L 715.74 489.53 L 715.43 488.97 L 715.12 488.41 L 714.81 487.85 L 714.49 487.30 L 714.17 486.74 L 713.85 486.19 L 713.52 485.64 L 713.19 485.09 L 712.86 484.54 L 712.52 483.99 L 712.19 483.44 L 711.85 482.89 L 711.50 482.35 L 711.16 481.81 L 710.81 481.26 L 710.46 480.72 L 710.10 480.18 L 709.75 479.64 L 709.39 479.11 L 709.02 478.57 L 708.66 478.04 L 708.29 477.50 L 707.92 476.97 L 707.55 476.44 L 707.17 475.91 L 706.79 475.39 L 706.41 474.86 L 706.02 474.33 L 705.63 473.81 L 705.24 473.29 L 704.85 472.77 L 704.45 472.25 L 704.06 471.73 L 703.65 471.22 L 703.26 470.71 L 702.88 470.22 L 702.50 469.74 L 702.11 469.25 L 701.72 468.77 L 701.33 468.29 L 700.94 467.81 L 700.54 467.33 L 700.15 466.85 L 699.75 466.37 L 699.35 465.90 L 698.94 465.42 L 698.53 464.95 L 698.12 464.48 L 697.71 464.01 L 697.30 463.54 L 696.88 463.08 L 696.46 462.61 L 696.04 462.15 L 695.62 461.69 L 695.19 461.23 L 694.76 460.77 L 694.33 460.32 L 693.90 459.86 L 693.46 459.41 L 693.03 458.96 L 692.58 458.51 L 692.14 458.06 L 691.70 457.61 L 691.25 457.17 L 690.80 456.72 L 690.35 456.28 L 689.89 455.84 L 689.44 455.40 L 688.98 454.97 L 688.52 454.53 L 688.06 454.10 L 687.59 453.67 L 687.12 453.24 L 686.65 452.81 L 686.18 452.38 L 685.71 451.96 L 685.23 451.54 L 684.75 451.12 L 684.27 450.70 L 683.79 450.28 L 683.30 449.87 L 682.81 449.46 L 682.32 449.05 L 681.83 448.64 L 681.34 448.23 L 680.84 447.82 L 680.34 447.42 L 679.84 447.02 L 679.34 446.62 L 678.83 446.22 L 678.32 445.83 L 677.81 445.44 L 677.30 445.04 L 676.79 444.65 L 676.27 444.27 L 675.76 443.88 L 675.24 443.50 L 674.71 443.12 L 674.19 442.74 L 673.66 442.36 L 673.14 441.99 L 672.60 441.62 L 672.07 441.25 L 671.54 440.88 L 671.00 440.51 L 670.46 440.15 L 669.92 439.78 L 669.38 439.42 L 668.84 439.07 L 668.29 438.71 L 667.74 438.36 L 667.19 438.01 L 666.64 437.66 L 666.08 437.31 L 665.53 436.97 L 664.97 436.63 L 664.41 436.29 L 663.85 435.95 L 662.75 435.40 L 661.64 434.87 L 660.53 434.34 L 659.42 433.82 L 658.30 433.31 L 657.17 432.81 L 656.04 432.32 L 654.91 431.83 L 653.77 431.36 L 652.62 430.90 L 651.47 430.44 L 650.32 430.00 L 649.16 429.56 L 648.00 429.14 L 646.83 428.72 L 645.66 428.31 L 644.48 427.92 L 643.30 427.53 L 642.12 427.15 L 640.93 426.78 L 639.74 426.42 L 638.54 426.08 L 637.34 425.74 L 636.14 425.41 L 634.93 425.09 L 633.72 424.78 L 632.51 424.48 L 631.29 424.19 L 630.07 423.92 L 628.85 423.65 L 627.62 423.39 L 626.39 423.14 L 625.16 422.91 L 623.92 422.68 L 622.68 422.46 L 621.44 422.25 L 620.20 422.06 L 618.95 421.87 L 617.70 421.70 L 616.45 421.53 L 615.20 421.38 L 613.94 421.23 L 612.69 421.10 L 611.43 420.98 L 610.17 420.87 L 608.90 420.76 L 607.64 420.67 L 606.37 420.59 L 605.10 420.52 L 603.83 420.47 L 602.56 420.42 L 601.29 420.38 L 600.02 420.35 L 598.75 420.34 L 597.47 420.33 L 596.19 420.34 L 594.92 420.35 L 593.64 420.38 L 592.36 420.42 L 591.08 420.47 L 589.80 420.53 L 588.52 420.60 L 587.24 420.68 L 585.96 420.77 L 584.68 420.88 L 583.40 420.99 L 582.12 421.12 L 580.84 421.25 L 579.57 421.40 L 578.29 421.56 L 577.01 421.73 L 575.73 421.91 L 574.45 422.10 L 573.18 422.30 L 571.90 422.51 L 570.63 422.73 L 569.35 422.97 L 568.08 423.21 L 566.81 423.47 L 565.54 423.74 L 564.27 424.02 L 563.00 424.31 L 561.74 424.61 L 560.52 424.90 L 559.33 425.20 L 558.13 425.51 L 556.94 425.82 L 555.76 426.15 L 554.57 426.49 L 553.38 426.83 L 552.20 427.19 L 551.02 427.56 L 549.84 427.93 L 548.67 428.32 L 547.49 428.71 L 546.32 429.12 L 545.15 429.53 L 543.98 429.95 L 542.82 430.39 L 541.66 430.83 L 540.50 431.28 L 539.34 431.74 L 538.19 432.21 L 537.04 432.70 L 535.90 433.19 L 534.75 433.69 L 533.61 434.20 L 532.47 434.71 L 531.34 435.24 L 530.21 435.78 L 529.08 436.33 L 527.96 436.89 L 526.84 437.45 L 525.72 438.03 L 524.61 438.61 L 523.50 439.21 L 522.40 439.81 L 521.30 440.42 L 520.21 441.04 L 519.11 441.67 L 518.03 442.31 L 516.94 442.96 L 515.87 443.62 L 514.79 444.29 L 513.72 444.96 L 512.66 445.65 L 511.60 446.34 L 510.54 447.05 L 509.49 447.76 L 508.45 448.48 L 507.41 449.21 L 506.37 449.95 L 505.34 450.70 L 504.32 451.45 L 503.30 452.22 L 502.29 452.99 L 501.28 453.77 L 500.28 454.56 L 499.28 455.36 L 498.29 456.17 L 497.30 456.99 L 496.32 457.81 L 495.35 458.64 L 494.38 459.49 L 493.42 460.34 L 492.47 461.19 L 491.52 462.06 L 490.57 462.93 L 489.64 463.82 L 488.71 464.71 L 487.78 465.61 L 486.87 466.51 L 485.96 467.43 L 485.05 468.35 L 484.16 469.28 L 483.27 470.22 L 482.38 471.16 L 481.51 472.12 L 480.64 473.08 L 479.78 474.05 L 478.92 475.02 L 478.07 476.01 L 477.23 477.00 L 476.40 478.00 L 475.57 479.00 L 474.76 480.02 L 473.96 481.02 L 473.20 481.98 L 472.44 482.96 L 471.69 483.93 L 470.95 484.92 L 470.21 485.91 L 469.48 486.91 L 468.76 487.91 L 468.04 488.92 L 467.33 489.94 L 466.63 490.96 L 465.94 491.99 L 465.25 493.02 L 464.58 494.06 L 463.90 495.11 L 463.24 496.16 L 462.58 497.22 L 461.93 498.28 L 461.29 499.35 L 460.66 500.42 L 460.03 501.50 L 459.41 502.59 L 458.80 503.68 L 458.20 504.78 L 457.61 505.88 L 457.02 506.98 L 456.44 508.09 L 455.87 509.21 L 455.31 510.33 L 454.75 511.46 L 454.20 512.59 L 453.66 513.73 L 453.13 514.87 L 452.61 516.02 L 452.10 517.17 L 451.59 518.32 L 451.09 519.48 L 450.61 520.65 L 450.13 521.82 L 449.65 522.99 L 449.19 524.17 L 448.74 525.35 L 448.29 526.54 L 447.85 527.73 L 447.42 528.92 L 447.00 530.12 L 446.59 531.33 L 446.19 532.53 L 445.80 533.74 L 445.41 534.96 L 445.04 536.18 L 444.67 537.40 L 444.31 538.62 L 443.96 539.85 L 443.62 541.08 L 443.29 542.32 L 442.97 543.56 L 442.66 544.80 L 442.35 546.05 L 442.06 547.30 L 441.77 548.55 L 441.50 549.80 L 441.23 551.06 L 440.97 552.32 L 440.73 553.58 L 440.49 554.85 L 440.26 556.12 L 440.04 557.39 L 439.83 558.66 L 439.63 559.94 L 439.44 561.22 L 439.25 562.50 L 439.08 563.78 L 438.92 565.07 L 438.77 566.36 L 438.62 567.65 L 438.49 568.94 L 438.37 570.23 L 438.25 571.53 L 438.15 572.82 L 438.05 574.12 L 437.97 575.42 L 437.89 576.72 L 437.82 578.03 L 437.76 579.26 L 437.71 580.49 L 437.67 581.73 L 437.64 582.96 L 437.61 584.20 L 437.60 585.43 L 437.59 586.67 L 437.59 587.91 L 437.60 589.15 L 437.62 590.39 L 437.65 591.63 L 437.68 592.88 L 437.73 594.12 L 437.79 595.36 L 437.85 596.61 L 437.92 597.85 L 438.00 599.10 L 438.09 600.34 L 438.19 601.58 L 438.30 602.83 L 438.42 604.08 L 438.54 605.32 L 438.68 606.57 L 438.82 607.81 L 438.97 609.06 L 439.14 610.30 L 439.31 611.54 L 439.49 612.79 L 439.68 614.03 L 439.87 615.27 L 440.08 616.52 L 440.30 617.76 L 440.52 619.00 L 440.76 620.24 L 441.00 621.48 L 441.25 622.72 L 441.51 623.96 L 441.78 625.19 L 442.06 626.43 L 442.35 627.66 L 442.64 628.90 L 442.95 630.13 L 443.26 631.36 L 443.59 632.59 L 443.92 633.82 L 444.26 635.04 L 444.61 636.27 L 444.97 637.49 L 445.34 638.71 L 445.72 639.93 L 446.10 641.15 L 446.50 642.36 L 446.90 643.58 L 447.32 644.79 L 447.74 646.00 L 448.17 647.20 L 448.61 648.41 L 449.06 649.61 L 449.52 650.81 L 449.98 652.01 L 450.46 653.21 L 450.94 654.40 L 451.43 655.59 L 451.94 656.78 L 452.45 657.96 L 452.97 659.14 L 453.49 660.32 L 454.03 661.50 L 454.58 662.67 L 455.13 663.84 L 455.69 665.01 L 456.27 666.17 L 456.85 667.33 L 457.44 668.49 L 458.03 669.64 L 458.64 670.79 L 459.26 671.94 L 459.88 673.08 L 460.51 674.22 L 461.15 675.36 L 461.80 676.49 L 462.46 677.61 L 463.12 678.74 L 463.77 679.82 L 464.41 680.88 L 465.05 681.93 L 465.71 682.98 L 466.37 684.03 L 467.04 685.07 L 467.71 686.11 L 468.40 687.15 L 469.09 688.18 L 469.79 689.21 L 470.49 690.23 L 471.21 691.25 L 471.93 692.27 L 472.65 693.28 L 473.39 694.29 L 474.13 695.29 L 474.88 696.29 L 475.64 697.28 L 476.40 698.27 L 477.17 699.26 L 477.95 700.24 L 478.74 701.22 L 479.53 702.19 L 480.33 703.15 L 481.13 704.12 L 481.95 705.07 L 482.77 706.03 L 483.60 706.98 L 484.43 707.92 L 485.27 708.86 L 486.12 709.79 L 486.98 710.72 L 487.84 711.64 L 488.71 712.56 L 489.58 713.47 L 490.46 714.38 L 491.35 715.28 L 492.25 716.18 L 493.15 717.07 L 494.06 717.95 L 494.98 718.83 L 495.90 719.71 L 496.83 720.58 L 497.76 721.44 L 498.70 722.30 L 499.65 723.15 L 500.61 724.00 L 501.57 724.84 L 502.53 725.67 L 503.51 726.50 L 504.49 727.32 L 505.47 728.14 L 506.46 728.95 L 507.46 729.76 L 508.47 730.55 L 509.48 731.35 L 510.49 732.13 L 511.51 732.91 L 512.54 733.68 L 513.58 734.45 L 514.62 735.21 L 515.66 735.96 L 516.71 736.71 L 517.77 737.45 L 518.83 738.19 L 519.90 738.91 L 520.97 739.64 L 522.05 740.35 L 523.14 741.06 L 524.23 741.76 L 525.33 742.45 L 526.43 743.14 L 527.53 743.82 L 528.65 744.49 L 529.76 745.16 L 530.89 745.81 L 532.01 746.47 L 533.15 747.11 L 534.29 747.75 L 535.43 748.38 L 536.58 749.00 L 537.73 749.62 L 538.89 750.23 L 540.03 750.82 L 541.13 751.38 L 542.23 751.95 L 543.34 752.50 L 544.45 753.05 L 545.57 753.59 L 546.69 754.12 L 547.82 754.65 L 548.94 755.17 L 550.08 755.69 L 551.21 756.19 L 552.36 756.69 L 553.50 757.19 L 554.65 757.67 L 555.80 758.15 L 556.96 758.63 L 558.12 759.09 L 559.28 759.55 L 560.45 760.00 L 561.62 760.45 L 562.80 760.88 L 563.98 761.31 L 565.16 761.74 L 566.35 762.15 L 567.54 762.56 L 568.73 762.96 L 569.92 763.35 L 571.12 763.74 L 572.33 764.12 L 573.53 764.49 L 574.74 764.86 L 575.95 765.21 L 577.17 765.56 L 578.39 765.90 L 579.61 766.24 L 580.83 766.57 L 582.06 766.89 L 583.29 767.20 L 584.52 767.50 L 585.76 767.80 L 587.00 768.09 L 588.24 768.37 L 589.48 768.64 L 590.73 768.91 L 591.98 769.17 L 593.23 769.42 L 594.48 769.66 L 595.74 769.89 L 597.00 770.12 L 598.26 770.34 L 599.52 770.55 L 600.79 770.76 L 602.05 770.95 L 603.32 771.14 L 604.60 771.32 L 605.87 771.49 L 607.15 771.66 L 608.42 771.81 L 609.70 771.96 L 610.98 772.10 L 612.27 772.23 L 613.55 772.36 L 614.84 772.47 L 616.13 772.58 L 617.42 772.68 L 618.71 772.77 L 620.00 772.85 L 621.29 772.93 L 622.59 773.00 L 623.88 773.05 L 625.18 773.10 L 626.48 773.15 L 627.78 773.18 L 629.08 773.21 L 630.39 773.23 L 631.69 773.24 L 632.99 773.24 L 634.30 773.23 L 635.60 773.21 L 636.91 773.19 L 638.22 773.16 L 639.53 773.12 L 640.84 773.07 L 642.15 773.01 L 643.38 772.96 L 644.62 772.90 L 645.86 772.83 L 647.10 772.75 L 648.34 772.67 L 649.58 772.58 L 650.82 772.48 L 652.06 772.38 L 653.30 772.26 L 654.54 772.14 L 655.78 772.02 L 657.02 771.88 L 658.27 771.74 L 659.51 771.59 L 660.75 771.43 L 661.99 771.26 L 663.23 771.09 L 664.47 770.91 L 665.71 770.72 L 666.95 770.52 L 668.19 770.32 L 669.43 770.11 L 670.67 769.89 L 671.91 769.66 L 673.15 769.43 L 674.39 769.19 L 675.62 768.94 L 676.86 768.68 L 678.09 768.42 L 679.33 768.15 L 680.56 767.87 L 681.80 767.58 L 683.03 767.28 L 684.26 766.98 L 685.49 766.67 L 686.72 766.36 L 687.95 766.03 L 689.18 765.70 L 690.40 765.36 L 691.63 765.01 L 692.85 764.66 L 694.07 764.29 L 695.30 763.92 L 696.52 763.54 L 697.73 763.16 L 698.95 762.77 L 700.17 762.36 L 701.38 761.96 L 702.59 761.54 L 703.80 761.12 L 705.01 760.69 L 706.22 760.25 L 707.42 759.80 L 708.63 759.35 L 709.83 758.89 L 711.03 758.42 L 712.23 757.94 L 713.42 757.46 L 714.62 756.97 L 715.81 756.47 L 717.00 755.97 L 718.18 755.45 L 719.37 754.93 L 720.55 754.40 L 721.73 753.87 L 722.91 753.32 L 724.08 752.77 L 725.26 752.22 L 726.43 751.65 L 727.59 751.08 L 728.76 750.50 L 729.92 749.91 L 731.08 749.31 L 732.24 748.71 L 733.39 748.10 L 734.54 747.49 L 735.69 746.86 L 736.84 746.23 L 737.98 745.59 L 739.12 744.94 L 740.25 744.29 L 741.39 743.63 L 742.52 742.96 L 743.61 742.32 L 744.67 741.68 L 745.73 741.04 L 746.79 740.39 L 747.85 739.73 L 748.91 739.07 L 749.96 738.40 L 751.00 737.72 L 752.05 737.04 L 753.09 736.35 L 754.13 735.66 L 755.17 734.96 L 756.20 734.25 L 757.23 733.54 L 758.25 732.82 L 759.27 732.09 L 760.29 731.36 L 761.31 730.62 L 762.32 729.88 L 763.33 729.12 L 764.33 728.37 L 765.33 727.60 L 766.33 726.83 L 767.33 726.06 L 768.32 725.28 L 769.30 724.49 L 770.29 723.69 L 771.26 722.89 L 772.24 722.09 L 773.21 721.27 L 774.18 720.45 L 775.14 719.63 L 776.10 718.80 L 777.05 717.96 L 778.01 717.12 L 778.95 716.27 L 779.90 715.42 L 780.83 714.56 L 781.77 713.69 L 782.70 712.82 L 783.63 711.94 L 784.55 711.05 L 785.46 710.17 L 786.38 709.27 L 787.29 708.37 L 788.19 707.46 L 789.09 706.55 L 789.98 705.63 L 790.87 704.71 L 791.76 703.78 L 792.64 702.84 L 793.52 701.90 L 794.39 700.95 L 795.25 700.00 L 796.12 699.04 L 796.97 698.08 L 797.83 697.11 L 798.67 696.13 L 799.52 695.15 L 800.35 694.17 L 801.19 693.18 L 802.01 692.18 L 802.84 691.18 L 803.65 690.17 L 804.47 689.16 L 805.27 688.14 L 806.08 687.12 L 806.87 686.09 L 807.66 685.06 L 808.45 684.02 L 809.23 682.98 L 810.01 681.93 L 810.78 680.88 L 811.54 679.82 L 812.30 678.75 L 813.05 677.68 L 813.80 676.61 L 814.54 675.53 L 815.28 674.45 L 816.01 673.36 L 816.74 672.27 L 817.46 671.17 L 818.17 670.06 L 818.87 668.98 L 819.54 667.93 L 820.21 666.88 L 820.87 665.83 L 821.53 664.77 L 822.18 663.70 L 822.82 662.64 L 823.46 661.56 L 824.10 660.49 L 824.73 659.41 L 825.35 658.32 L 825.97 657.24 L 826.59 656.14 L 827.20 655.05 L 827.80 653.95 L 828.40 652.84 L 828.99 651.74 L 829.58 650.62 L 830.16 649.51 L 830.73 648.39 L 831.30 647.26 L 831.87 646.14 L 832.43 645.00 L 832.98 643.87 L 833.53 642.73 L 834.07 641.59 L 834.61 640.44 L 835.14 639.29 L 835.66 638.14 L 836.18 636.98 L 836.69 635.82 L 837.20 634.66 L 837.70 633.49 L 838.20 632.32 L 838.69 631.14 L 839.17 629.96 L 839.65 628.78 L 840.12 627.60 L 840.58 626.41 L 841.04 625.22 L 841.50 624.02 L 841.94 622.83 L 842.39 621.62 L 842.82 620.42 L 843.25 619.21 L 843.67 618.00 L 844.09 616.79 L 844.50 615.57 L 844.91 614.35 L 845.30 613.13 L 845.70 611.90 L 846.08 610.67 L 846.46 609.44 L 846.83 608.21 L 847.20 606.97 L 847.56 605.73 L 847.92 604.49 L 848.26 603.24 L 848.60 601.99 L 848.94 600.74 L 849.27 599.49 L 849.59 598.23 L 849.90 596.97 L 850.21 595.71 L 850.52 594.45 L 850.81 593.18 L 851.10 591.91 L 851.38 590.64 L 851.66 589.37 L 851.93 588.09 L 852.19 586.81 L 852.45 585.53 L 852.70 584.25 L 852.94 582.97 L 853.18 581.68 L 853.41 580.39 L 853.63 579.10 L 853.85 577.80 L 854.06 576.51 L 854.26 575.21 L 854.45 573.91 L 854.64 572.61 L 854.82 571.31 L 855.00 570.00 L 855.17 568.77 L 855.33 567.53 L 855.49 566.29 L 855.64 565.05 L 855.78 563.81 L 855.92 562.57 L 856.05 561.33 L 856.18 560.08 L 856.30 558.84 L 856.41 557.59 L 856.52 556.34 L 856.62 555.09 L 856.72 553.84 L 856.80 552.58 L 856.89 551.33 L 856.96 550.07 L 857.03 548.81 L 857.10 547.56 L 857.15 546.30 L 857.20 545.03 L 857.25 543.77 L 857.29 542.51 L 857.32 541.25 L 857.35 539.98 L 857.36 538.71 L 857.38 537.45 L 857.38 536.18 L 857.38 534.91 L 857.38 533.64 L 857.36 532.37 L 857.35 531.10 L 857.32 529.82 L 857.29 528.55 L 857.25 527.28 L 857.21 526.00 L 857.15 524.73 L 857.10 523.45 L 857.03 522.17 L 856.96 520.90 L 856.88 519.62 L 856.80 518.34 L 856.71 517.06 L 856.61 515.78 L 856.51 514.51 L 856.40 513.23 L 856.29 511.95 L 856.16 510.67 L 856.03 509.39 L 855.90 508.10 L 855.76 506.82 L 855.61 505.54 L 855.45 504.26 L 855.29 502.98 L 855.12 501.70 L 854.95 500.42 L 854.76 499.14 L 854.58 497.85 L 854.38 496.57 L 854.18 495.29 L 853.97 494.01 L 853.76 492.73 L 853.54 491.45 L 853.31 490.17 L 853.07 488.89 L 852.83 487.61 L 852.58 486.33 L 852.33 485.05 L 852.07 483.77 L 851.80 482.49 L 851.53 481.21 L 851.25 479.94 L 850.96 478.66 L 850.67 477.38 L 850.36 476.11 L 850.06 474.83 L 849.74 473.56 L 849.42 472.28 L 849.10 471.01 L 848.76 469.74 L 848.42 468.47 L 848.07 467.20 L 847.72 465.93 L 847.36 464.66 L 847.01 463.43 L 846.67 462.23 L 846.32 461.03 L 845.97 459.84 L 845.61 458.64 L 845.24 457.44 L 844.87 456.25 L 844.49 455.05 L 844.10 453.86 L 843.71 452.66 L 843.32 451.47 L 842.91 450.28 L 842.51 449.09 L 842.09 447.90 L 841.67 446.72 L 841.24 445.53 L 840.81 444.34 L 840.37 443.16 L 839.93 441.98 L 839.48 440.80 L 839.02 439.62 L 838.56 438.44 L 838.10 437.26 L 837.62 436.09 L 837.14 434.91 L 836.66 433.74 L 836.17 432.57 L 835.67 431.40 L 835.17 430.23 L 834.66 429.06 L 834.14 427.90 L 833.62 426.73 L 833.09 425.57 L 832.56 424.41 L 832.02 423.25 L 831.48 422.10 L 830.93 420.94 L 830.37 419.79 L 829.81 418.64 L 829.24 417.49 L 828.67 416.34 L 828.09 415.20 L 827.50 414.05 L 826.91 412.91 L 826.32 411.77 L 825.71 410.63 L 825.10 409.50 L 824.49 408.37 L 823.87 407.23 L 823.24 406.11 L 822.61 404.98 L 821.97 403.85 L 821.33 402.73 L 820.68 401.61 L 820.03 400.49 L 819.36 399.38 L 818.70 398.27 L 818.03 397.16 L 817.35 396.05 L 816.66 394.94 L 815.97 393.84 L 815.28 392.74 L 814.58 391.64 L 813.87 390.55 L 813.16 389.45 L 812.44 388.36 L 811.72 387.27 L 810.99 386.19 L 810.25 385.11 L 809.51 384.03 L 808.77 382.95 L 808.01 381.88 L 807.26 380.81 L 806.49 379.74 L 805.72 378.67 L 804.95 377.61 L 804.17 376.55 L 803.38 375.50 L 802.59 374.44 L 801.80 373.39 L 800.99 372.34 L 800.19 371.30 L 799.37 370.26 L 798.57 369.24 L 797.80 368.25 L 797.03 367.27 L 796.24 366.29 L 795.46 365.32 L 794.67 364.34 L 793.87 363.37 L 793.07 362.40 L 792.27 361.44 L 791.46 360.48 L 790.64 359.52 L 789.83 358.56 L 789.00 357.61 L 788.17 356.66 L 787.34 355.71 L 786.50 354.77 L 785.66 353.83 L 784.81 352.89 L 783.95 351.96 L 783.10 351.03 L 782.23 350.10 L 781.36 349.17 L 780.49 348.25 L 779.62 347.33 L 778.73 346.42 L 777.85 345.51 L 776.96 344.60 L 776.06 343.70 L 775.16 342.79 L 774.25 341.90 L 773.34 341.00 L 772.43 340.11 L 771.51 339.22 L 770.59 338.34 L 769.66 337.46 L 768.72 336.58 L 767.79 335.71 L 766.84 334.84 L 765.90 333.97 L 764.95 333.11 L 763.99 332.25 L 763.03 331.40 L 762.07 330.54 L 761.10 329.70 L 760.12 328.85 L 759.14 328.01 L 758.16 327.18 L 757.17 326.34 L 756.18 325.52 L 755.19 324.69 L 754.19 323.87 L 753.18 323.05 L 752.17 322.24 L 751.16 321.43 L 750.14 320.63 L 749.12 319.83 L 748.09 319.03 L 747.06 318.24 L 746.03 317.45 L 744.99 316.66 L 743.95 315.88 L 742.90 315.11 L 741.85 314.33 L 740.79 313.56 L 739.73 312.80 L 738.67 312.04 L 737.60 311.29 L 736.52 310.53 L 735.45 309.79 L 734.37 309.05 L 733.28 308.31 L 732.19 307.57 L 731.10 306.84 L 730.00 306.12 L 728.90 305.40 L 727.80 304.68 L 726.69 303.97 L 725.58 303.26 L 724.46 302.56 L 723.34 301.86 L 722.21 301.17 L 721.08 300.48 L 719.95 299.80 L 718.82 299.12 L 716.59 298.01 L 714.36 296.93 L 712.12 295.86 L 709.86 294.82 L 707.60 293.79 L 705.32 292.78 L 703.04 291.79 L 700.75 290.81 L 698.44 289.86 L 696.13 288.92 L 693.80 288.01 L 691.47 287.11 L 689.13 286.23 L 686.78 285.37 L 684.42 284.54 L 682.05 283.72 L 679.67 282.91 L 677.29 282.13 L 674.90 281.37 L 672.49 280.63 L 670.09 279.91 L 667.67 279.21 L 665.24 278.53 L 662.81 277.86 L 660.37 277.22 L 657.93 276.60 L 655.47 276.00 L 653.01 275.42 L 650.55 274.86 L 648.07 274.32 L 645.60 273.80 L 643.11 273.30 L 640.62 272.83 L 638.12 272.37 L 635.62 271.93 L 633.11 271.52 L 630.60 271.12 L 628.08 270.75 L 625.56 270.40 L 623.03 270.07 L 620.50 269.76 L 617.97 269.47 L 615.43 269.20 L 612.88 268.96 L 610.34 268.73 L 607.78 268.53 L 605.23 268.35 L 602.67 268.19 L 600.11 268.05 L 597.55 267.93 L 594.98 267.84 L 592.41 267.76 L 589.84 267.71 L 587.27 267.68 L 584.69 267.67 L 582.11 267.69 L 579.53 267.72 L 576.95 267.78 L 574.37 267.86 L 571.79 267.96 L 569.21 268.08 L 566.62 268.23 L 564.04 268.39 L 561.45 268.58 L 558.87 268.79 L 556.28 269.03 L 553.70 269.28 L 551.11 269.56 L 548.53 269.86 L 545.95 270.18 L 543.36 270.52 L 540.78 270.89 L 538.20 271.28 L 535.63 271.69 L 533.05 272.12 L 530.48 272.57 L 527.91 273.05 L 525.34 273.55 L 522.77 274.07 L 520.20 274.61 L 517.64 275.17 L 515.08 275.76 L 512.53 276.37 L 510.07 276.97 L 507.66 277.57 L 505.26 278.19 L 502.85 278.83 L 500.45 279.50 L 498.06 280.18 L 495.67 280.88 L 493.28 281.60 L 490.89 282.34 L 488.52 283.10 L 486.14 283.88 L 483.77 284.68 L 481.41 285.50 L 479.05 286.33 L 476.69 287.19 L 474.34 288.07 L 472.00 288.96 L 469.66 289.88 L 467.32 290.81 L 465.00 291.77 L 462.68 292.74 L 460.36 293.73 L 458.05 294.75 L 455.75 295.78 L 453.46 296.83 L 451.17 297.90 L 448.89 298.98 L 446.61 300.09 L 444.35 301.22 L 442.09 302.36 L 439.83 303.52 L 437.59 304.71 L 435.35 305.91 L 433.13 307.13 L 430.91 308.37 L 428.70 309.62 L 426.49 310.90 L 424.30 312.19 L 422.11 313.50 L 419.94 314.83 L 417.77 316.18 L 415.61 317.55 L 413.47 318.94 L 411.33 320.34 L 409.20 321.76 L 407.08 323.20 L 404.97 324.66 L 402.87 326.13 L 400.79 327.63 L 398.71 329.14 L 396.64 330.66 L 394.59 332.21 L 392.54 333.77 L 390.51 335.35 L 388.49 336.95 L 386.48 338.57 L 384.48 340.20 L 382.49 341.85 L 380.51 343.52 L 378.55 345.20 L 376.60 346.90 L 374.66 348.62 L 372.73 350.35 L 370.82 352.10 L 368.91 353.87 L 367.03 355.65 L 365.15 357.45 L 363.29 359.26 L 361.44 361.09 L 359.60 362.94 L 357.78 364.81 L 355.97 366.68 L 354.18 368.58 L 352.39 370.49 L 350.63 372.42 L 348.87 374.36 L 347.14 376.31 L 345.41 378.29 L 343.70 380.27 L 342.01 382.28 L 340.33 384.29 L 338.66 386.32 L 337.01 388.37 L 335.41 390.39 L 333.87 392.34 L 332.34 394.31 L 330.83 396.28 L 329.33 398.27 L 327.85 400.28 L 326.38 402.29 L 324.92 404.32 L 323.48 406.36 L 322.05 408.41 L 320.64 410.47 L 319.24 412.55 L 317.86 414.64 L 316.49 416.74 L 315.14 418.85 L 313.80 420.97 L 312.48 423.11 L 311.17 425.25 L 309.88 427.41 L 308.60 429.58 L 307.34 431.76 L 306.09 433.95 L 304.86 436.15 L 303.64 438.37 L 302.45 440.59 L 301.26 442.82 L 300.10 445.07 L 298.95 447.32 L 297.81 449.59 L 296.69 451.86 L 295.59 454.15 L 294.51 456.44 L 293.44 458.75 L 292.39 461.06 L 291.35 463.38 L 290.33 465.72 L 289.33 468.06 L 288.35 470.41 L 287.38 472.77 L 286.43 475.14 L 285.50 477.52 L 284.58 479.90 L 283.68 482.30 L 282.80 484.70 L 281.94 487.11 L 281.09 489.53 L 280.26 491.96 L 279.45 494.39 L 278.66 496.84 L 277.89 499.29 L 277.13 501.75 L 276.39 504.21 L 275.67 506.69 L 274.97 509.17 L 274.29 511.65 L 273.62 514.15 L 272.97 516.65 L 272.35 519.16 L 271.74 521.67 L 271.14 524.19 L 270.57 526.71 L 270.02 529.25 L 269.48 531.78 L 268.96 534.33 L 268.47 536.88 L 267.99 539.43 L 267.53 541.99 L 267.09 544.56 L 266.66 547.13 L 266.26 549.70 L 265.88 552.28 L 265.51 554.87 L 265.17 557.46 L 264.84 560.05 L 264.53 562.65 L 264.25 565.25 L 263.98 567.86 L 263.73 570.47 L 263.50 573.08 L 263.29 575.70 L 263.10 578.31 L 262.93 580.94 L 262.78 583.56 L 262.65 586.19 L 262.53 588.68 L 262.43 591.16 L 262.35 593.65 L 262.28 596.15 L 262.23 598.64 L 262.20 601.14 L 262.19 603.63 L 262.20 606.13 L 262.22 608.64 L 262.26 611.14 L 262.32 613.64 L 262.40 616.15 L 262.49 618.65 L 262.60 621.16 L 262.73 623.67 L 262.88 626.18 L 263.05 628.69 L 263.23 631.20 L 263.43 633.71 L 263.65 636.22 L 263.89 638.73 L 264.15 641.25 L 264.42 643.76 L 264.71 646.27 L 265.03 648.78 L 265.35 651.29 L 265.70 653.80 L 266.07 656.31 L 266.45 658.81 L 266.85 661.32 L 267.27 663.83 L 267.71 666.33 L 268.16 668.83 L 268.63 671.33 L 269.13 673.83 L 269.64 676.33 L 270.16 678.83 L 270.71 681.32 L 271.27 683.81 L 271.86 686.30 L 272.46 688.79 L 273.07 691.27 L 273.71 693.75 L 274.37 696.23 L 275.04 698.71 L 275.73 701.18 L 276.44 703.65 L 277.17 706.11 L 277.91 708.58 L 278.67 711.03 L 279.46 713.49 L 280.25 715.94 L 281.07 718.39 L 281.91 720.83 L 282.76 723.27 L 283.63 725.70 L 284.52 728.13 L 285.43 730.55 L 286.35 732.97 L 287.29 735.39 L 288.25 737.80 L 289.23 740.20 L 290.23 742.60 L 291.24 745.00 L 292.27 747.38 L 293.32 749.77 L 294.39 752.14 L 295.48 754.51 L 296.58 756.88 L 297.70 759.24 L 298.83 761.59 L 299.99 763.93 L 301.16 766.27 L 302.35 768.60 L 303.56 770.93 L 304.78 773.25 L 306.02 775.56 L 307.28 777.86 L 308.56 780.16 L 309.85 782.44 L 311.16 784.72 L 312.49 787.00 L 313.84 789.26 L 315.14 791.44 L 316.43 793.57 L 317.73 795.70 L 319.05 797.81 L 320.39 799.92 L 321.74 802.03 L 323.10 804.12 L 324.48 806.21 L 325.88 808.29 L 327.29 810.36 L 328.71 812.42 L 330.15 814.48 L 331.60 816.52 L 333.07 818.56 L 334.56 820.59 L 336.06 822.61 L 337.57 824.62 L 339.10 826.63 L 340.64 828.62 L 342.19 830.61 L 343.76 832.58 L 345.35 834.55 L 346.95 836.51 L 348.56 838.46 L 350.19 840.40 L 351.83 842.33 L 353.49 844.25 L 355.16 846.16 L 356.84 848.06 L 358.54 849.95 L 360.25 851.83 L 361.98 853.70 L 363.72 855.55 L 365.47 857.40 L 367.24 859.24 L 369.02 861.07 L 370.81 862.89 L 372.62 864.69 L 374.44 866.49 L 376.27 868.27 L 378.12 870.04 L 379.98 871.81 L 381.85 873.56 L 383.74 875.29 L 385.64 877.02 L 387.55 878.74 L 389.47 880.44 L 391.41 882.13 L 393.36 883.81 L 395.33 885.48 L 397.30 887.14 L 399.29 888.78 L 401.29 890.42 L 403.30 892.04 L 405.33 893.64 L 407.36 895.24 L 409.41 896.82 L 411.48 898.39 L 413.55 899.95 L 415.63 901.49 L 417.73 903.02 L 419.84 904.54 L 421.96 906.04 L 424.09 907.53 L 426.23 909.01 L 428.39 910.48 L 430.55 911.93 L 432.73 913.36 L 434.92 914.79 L 437.12 916.20 L 439.33 917.59 L 441.55 918.98 L 443.78 920.35 L 446.03 921.70 L 448.28 923.04 L 450.54 924.37 L 452.82 925.68 L 455.10 926.97 L 457.40 928.26 L 459.70 929.52 L 462.02 930.78 L 464.34 932.02 L 466.68 933.24 L 468.98 934.43 L 471.19 935.57 L 473.42 936.70 L 475.65 937.82 L 477.89 938.92 L 480.15 940.01 L 482.41 941.08 L 484.67 942.15 L 486.95 943.19 L 489.23 944.23 L 491.53 945.25 L 493.83 946.25 L 496.14 947.25 L 498.45 948.22 L 500.78 949.19 L 503.11 950.14 L 505.45 951.08 L 507.79 952.00 L 510.15 952.90 L 512.51 953.80 L 514.88 954.68 L 517.26 955.54 L 519.64 956.39 L 522.03 957.23 L 524.43 958.05 L 526.83 958.85 L 529.24 959.65 L 531.66 960.42 L 534.08 961.18 L 536.51 961.93 L 538.95 962.66 L 541.39 963.38 L 543.84 964.08 L 546.30 964.77 L 548.76 965.44 L 551.23 966.10 L 553.70 966.74 L 556.18 967.37 L 558.66 967.98 L 561.15 968.57 L 563.65 969.15 L 566.15 969.72 L 568.66 970.27 L 571.17 970.80 L 573.69 971.32 L 576.21 971.82 L 578.73 972.31 L 581.27 972.78 L 583.80 973.24 L 586.34 973.68 L 588.89 974.10 L 591.44 974.51 L 593.99 974.90 L 596.55 975.28 L 599.11 975.64 L 601.68 975.98 L 604.25 976.31 L 606.82 976.62 L 609.40 976.92 L 611.98 977.20 L 614.57 977.46 L 617.16 977.71 L 619.75 977.94 L 622.34 978.16 L 624.94 978.35 L 627.54 978.54 L 630.15 978.70 L 632.75 978.85 L 635.36 978.98 L 637.97 979.10 L 640.59 979.20 L 643.21 979.29 L 645.82 979.35 L 648.45 979.40 L 651.07 979.44 L 653.70 979.45 L 656.32 979.45 L 658.95 979.44 L 661.58 979.40 L 664.22 979.36 L 666.85 979.29 L 669.49 979.21 L 672.12 979.11 L 674.76 978.99 L 677.25 978.88 L 679.75 978.76 L 682.24 978.62 L 684.74 978.46 L 687.24 978.29 L 689.73 978.11 L 692.23 977.91 L 694.73 977.69 L 697.23 977.46 L 699.73 977.22 L 702.23 976.96 L 704.73 976.68 L 707.23 976.39 L 709.73 976.08 L 712.23 975.76 L 714.73 975.43 L 717.23 975.08 L 719.73 974.71 L 722.23 974.33 L 724.72 973.93 L 727.22 973.52 L 729.72 973.09 L 732.21 972.65 L 734.71 972.19 L 737.20 971.72 L 739.69 971.23 L 742.18 970.73 L 744.67 970.21 L 747.16 969.67 L 749.65 969.12 L 752.13 968.56 L 754.62 967.98 L 757.10 967.38 L 759.58 966.77 L 762.06 966.15 L 764.53 965.50 L 767.01 964.85 L 769.48 964.18 L 771.95 963.49 L 774.42 962.79 L 776.88 962.07 L 779.34 961.34 L 781.80 960.59 L 784.26 959.83 L 786.71 959.05 L 789.16 958.25 L 791.61 957.45 L 794.05 956.62 L 796.49 955.78 L 798.93 954.93 L 801.36 954.06 L 803.79 953.17 L 806.22 952.27 L 808.64 951.36 L 811.06 950.43 L 813.48 949.48 L 815.89 948.52 L 818.29 947.55 L 820.70 946.56 L 823.09 945.55 L 825.49 944.53 L 827.88 943.50 L 830.26 942.44 L 832.64 941.38 L 835.02 940.30 L 837.39 939.20 L 839.76 938.09 L 842.12 936.97 L 844.47 935.83 L 846.82 934.67 L 849.17 933.50 L 851.51 932.31 L 853.84 931.11 L 856.17 929.90 L 858.49 928.67 L 860.81 927.43 L 863.12 926.17 L 865.43 924.89 L 867.72 923.61 L 870.02 922.30 L 872.30 920.99 L 874.58 919.65 L 876.86 918.31 L 879.05 917.01 L 881.19 915.72 L 883.33 914.42 L 885.47 913.11 L 887.59 911.79 L 889.72 910.46 L 891.83 909.11 L 893.94 907.74 L 896.04 906.37 L 898.14 904.98 L 900.23 903.58 L 902.31 902.17 L 904.39 900.74 L 906.46 899.30 L 908.52 897.85 L 910.58 896.39 L 912.63 894.91 L 914.67 893.42 L 916.71 891.92 L 918.74 890.41 L 920.76 888.88 L 922.77 887.34 L 924.78 885.79 L 926.78 884.23 L 928.77 882.65 L 930.76 881.06 L 932.74 879.46 L 934.71 877.85 L 936.67 876.22 L 938.62 874.59 L 940.57 872.94 L 942.50 871.27 L 944.43 869.60 L 946.36 867.91 L 948.27 866.22 L 950.17 864.51 L 952.07 862.78 L 953.96 861.05 L 955.84 859.30 L 957.71 857.55 L 959.57 855.78 L 961.43 854.00 L 963.27 852.20 L 965.11 850.40 L 966.93 848.58 L 968.75 846.75 L 970.56 844.92 L 972.36 843.06 L 974.15 841.20 L 975.93 839.33 L 977.71 837.44 L 979.47 835.55 L 981.22 833.64 L 982.97 831.72 L 984.70 829.79 L 986.42 827.85 L 988.14 825.90 L 989.84 823.94 L 991.54 821.96 L 993.22 819.98 L 994.89 817.98 L 996.56 815.98 L 998.21 813.96 L 999.86 811.93 L 1001.49 809.89 L 1003.11 807.84 L 1004.73 805.78 L 1006.33 803.71 L 1007.92 801.63 L 1009.50 799.54 L 1011.07 797.44 L 1012.63 795.33 L 1014.18 793.20 L 1015.71 791.07 L 1017.24 788.93 L 1018.76 786.78 L 1020.26 784.61 L 1021.75 782.44 L 1023.23 780.26 L 1024.71 778.06 L 1026.16 775.86 L 1027.61 773.65 L 1029.05 771.43 L 1030.45 769.24 L 1031.80 767.13 L 1033.14 765.02 L 1034.47 762.89 L 1035.79 760.76 L 1037.10 758.62 L 1038.40 756.47 L 1039.69 754.31 L 1040.96 752.15 L 1042.23 749.97 L 1043.48 747.79 L 1044.73 745.60 L 1045.96 743.40 L 1047.19 741.19 L 1048.40 738.97 L 1049.60 736.75 L 1050.79 734.52 L 1051.97 732.28 L 1053.14 730.03 L 1054.29 727.78 L 1055.44 725.52 L 1056.57 723.24 L 1057.70 720.97 L 1058.81 718.68 L 1059.91 716.39 L 1061.00 714.09 L 1062.07 711.78 L 1063.14 709.47 L 1064.19 707.14 L 1065.24 704.81 L 1066.27 702.48 L 1067.28 700.13 L 1068.29 697.78 L 1069.29 695.42 L 1070.27 693.06 L 1071.24 690.69 L 1072.20 688.31 L 1073.15 685.92 L 1074.08 683.53 L 1075.01 681.13 L 1075.92 678.73 L 1076.81 676.32 L 1077.70 673.90 L 1078.57 671.48 L 1079.44 669.04 L 1080.29 666.61 L 1081.12 664.16 L 1081.95 661.72 L 1082.76 659.26 L 1083.56 656.80 L 1084.35 654.33 L 1085.12 651.86 L 1085.88 649.38 L 1086.63 646.89 L 1087.37 644.40 L 1088.09 641.91 L 1088.80 639.41 L 1089.50 636.90 L 1090.18 634.39 L 1090.85 631.87 L 1091.51 629.35 L 1092.16 626.82 L 1092.79 624.28 L 1093.41 621.74 L 1094.02 619.20 L 1094.61 616.65 L 1095.19 614.10 L 1095.76 611.54 L 1096.31 608.98 L 1096.85 606.41 L 1097.38 603.84 L 1097.89 601.26 L 1098.39 598.68 L 1098.88 596.09 L 1099.35 593.50 L 1099.81 590.90 L 1100.26 588.31 L 1100.69 585.70 L 1101.11 583.10 L 1101.51 580.48 L 1101.91 577.87 L 1102.28 575.25 L 1102.65 572.63 L 1103.00 570.00" fill="none" stroke="#2d74bd" stroke-width="3.0" opacity="0.9" stroke-linecap="round" stroke-linejoin="round"/>
<circle cx="638.00" cy="570.00" r="5.20" fill="#e57d22" stroke="white" stroke-width="1" opacity="1"/>
<text x="659.00" y="570.00" font-family="DejaVu Sans, Arial, sans-serif" font-size="10.5" font-weight="normal" fill="#e57d22" text-anchor="start">5.A&#x27;-</text>
<circle cx="637.26" cy="557.85" r="5.20" fill="#e57d22" stroke="white" stroke-width="1" opacity="1"/>
<text x="656.44" y="549.30" font-family="DejaVu Sans, Arial, sans-serif" font-size="10.5" font-weight="normal" fill="#e57d22" text-anchor="start">5.B&#x27;-</text>
<circle cx="631.80" cy="546.86" r="5.20" fill="#e57d22" stroke="white" stroke-width="1" opacity="1"/>
<text x="646.20" y="531.57" font-family="DejaVu Sans, Arial, sans-serif" font-size="10.5" font-weight="normal" fill="#e57d22" text-anchor="start">5.C&#x27;-</text>
<circle cx="622.62" cy="538.58" r="5.20" fill="#2e9d55" stroke="white" stroke-width="1" opacity="1"/>
<text x="630.45" y="519.09" font-family="DejaVu Sans, Arial, sans-serif" font-size="10.5" font-weight="normal" fill="#2e9d55" text-anchor="start">6.1&#x27;-</text>
<circle cx="598.54" cy="535.81" r="5.20" fill="#2e9d55" stroke="white" stroke-width="1" opacity="1"/>
<text x="591.87" y="515.90" font-family="DejaVu Sans, Arial, sans-serif" font-size="10.5" font-weight="normal" fill="#2e9d55" text-anchor="end">6.2&#x27;-</text>
<circle cx="577.93" cy="548.91" r="5.20" fill="#2e9d55" stroke="white" stroke-width="1" opacity="1"/>
<text x="560.39" y="537.37" font-family="DejaVu Sans, Arial, sans-serif" font-size="10.5" font-weight="normal" fill="#2e9d55" text-anchor="end">6.3&#x27;-</text>
<circle cx="569.20" cy="571.90" r="5.20" fill="#2e9d55" stroke="white" stroke-width="1" opacity="1"/>
<text x="548.23" y="572.88" font-family="DejaVu Sans, Arial, sans-serif" font-size="10.5" font-weight="normal" fill="#2e9d55" text-anchor="end">6.4&#x27;-</text>
<circle cx="575.14" cy="595.94" r="5.20" fill="#2e9d55" stroke="white" stroke-width="1" opacity="1"/>
<text x="558.29" y="608.47" font-family="DejaVu Sans, Arial, sans-serif" font-size="10.5" font-weight="normal" fill="#2e9d55" text-anchor="end">6.5&#x27;-</text>
<circle cx="593.23" cy="613.06" r="5.20" fill="#2e9d55" stroke="white" stroke-width="1" opacity="1"/>
<text x="585.61" y="632.63" font-family="DejaVu Sans, Arial, sans-serif" font-size="10.5" font-weight="normal" fill="#2e9d55" text-anchor="end">6.6&#x27;-</text>
<circle cx="617.68" cy="618.53" r="5.20" fill="#2e9d55" stroke="white" stroke-width="1" opacity="1"/>
<text x="620.97" y="639.27" font-family="DejaVu Sans, Arial, sans-serif" font-size="10.5" font-weight="normal" fill="#2e9d55" text-anchor="middle">6.7&#x27;-</text>
<circle cx="641.85" cy="611.40" r="5.20" fill="#2e9d55" stroke="white" stroke-width="1" opacity="1"/>
<text x="654.66" y="628.05" font-family="DejaVu Sans, Arial, sans-serif" font-size="10.5" font-weight="normal" fill="#2e9d55" text-anchor="start">6.8&#x27;-</text>
<circle cx="660.13" cy="593.86" r="5.20" fill="#2e9d55" stroke="white" stroke-width="1" opacity="1"/>
<text x="679.09" y="602.89" font-family="DejaVu Sans, Arial, sans-serif" font-size="10.5" font-weight="normal" fill="#2e9d55" text-anchor="start">6.9&#x27;-</text>
<circle cx="669.00" cy="570.00" r="5.20" fill="#2e9d55" stroke="white" stroke-width="1" opacity="1"/>
<text x="690.00" y="570.00" font-family="DejaVu Sans, Arial, sans-serif" font-size="10.5" font-weight="normal" fill="#2e9d55" text-anchor="start">6.A&#x27;-</text>
<circle cx="667.25" cy="544.47" r="5.20" fill="#2e9d55" stroke="white" stroke-width="1" opacity="1"/>
<text x="686.43" y="535.92" font-family="DejaVu Sans, Arial, sans-serif" font-size="10.5" font-weight="normal" fill="#2e9d55" text-anchor="start">6.B&#x27;-</text>
<circle cx="655.66" cy="521.53" r="5.20" fill="#2e9d55" stroke="white" stroke-width="1" opacity="1"/>
<text x="670.06" y="506.24" font-family="DejaVu Sans, Arial, sans-serif" font-size="10.5" font-weight="normal" fill="#2e9d55" text-anchor="start">6.C&#x27;-</text>
<circle cx="636.37" cy="504.37" r="5.20" fill="#008b8b" stroke="white" stroke-width="1" opacity="1"/>
<text x="644.19" y="484.88" font-family="DejaVu Sans, Arial, sans-serif" font-size="10.5" font-weight="normal" fill="#008b8b" text-anchor="start">7.1&#x27;-</text>
<circle cx="586.13" cy="498.78" r="5.20" fill="#008b8b" stroke="white" stroke-width="1" opacity="1"/>
<text x="579.46" y="478.87" font-family="DejaVu Sans, Arial, sans-serif" font-size="10.5" font-weight="normal" fill="#008b8b" text-anchor="end">7.2&#x27;-</text>
<circle cx="543.36" cy="526.17" r="5.20" fill="#008b8b" stroke="white" stroke-width="1" opacity="1"/>
<text x="525.82" y="514.63" font-family="DejaVu Sans, Arial, sans-serif" font-size="10.5" font-weight="normal" fill="#008b8b" text-anchor="end">7.3&#x27;-</text>
<circle cx="525.41" cy="573.94" r="5.20" fill="#008b8b" stroke="white" stroke-width="1" opacity="1"/>
<text x="504.43" y="574.92" font-family="DejaVu Sans, Arial, sans-serif" font-size="10.5" font-weight="normal" fill="#008b8b" text-anchor="end">7.4&#x27;-</text>
<circle cx="537.88" cy="623.66" r="5.20" fill="#008b8b" stroke="white" stroke-width="1" opacity="1"/>
<text x="521.03" y="636.20" font-family="DejaVu Sans, Arial, sans-serif" font-size="10.5" font-weight="normal" fill="#008b8b" text-anchor="end">7.5&#x27;-</text>
<circle cx="575.38" cy="658.92" r="5.20" fill="#008b8b" stroke="white" stroke-width="1" opacity="1"/>
<text x="567.76" y="678.48" font-family="DejaVu Sans, Arial, sans-serif" font-size="10.5" font-weight="normal" fill="#008b8b" text-anchor="end">7.6&#x27;-</text>
<circle cx="625.84" cy="670.02" r="5.20" fill="#008b8b" stroke="white" stroke-width="1" opacity="1"/>
<text x="629.12" y="690.77" font-family="DejaVu Sans, Arial, sans-serif" font-size="10.5" font-weight="normal" fill="#008b8b" text-anchor="middle">7.7&#x27;-</text>
<circle cx="675.53" cy="655.18" r="5.20" fill="#008b8b" stroke="white" stroke-width="1" opacity="1"/>
<text x="688.34" y="671.82" font-family="DejaVu Sans, Arial, sans-serif" font-size="10.5" font-weight="normal" fill="#008b8b" text-anchor="start">7.8&#x27;-</text>
<circle cx="712.97" cy="619.02" r="5.20" fill="#008b8b" stroke="white" stroke-width="1" opacity="1"/>
<text x="731.93" y="628.04" font-family="DejaVu Sans, Arial, sans-serif" font-size="10.5" font-weight="normal" fill="#008b8b" text-anchor="start">7.9&#x27;-</text>
<circle cx="731.00" cy="570.00" r="5.20" fill="#008b8b" stroke="white" stroke-width="1" opacity="1"/>
<text x="752.00" y="570.00" font-family="DejaVu Sans, Arial, sans-serif" font-size="10.5" font-weight="normal" fill="#008b8b" text-anchor="start">7.A&#x27;-</text>
<circle cx="727.25" cy="517.73" r="5.20" fill="#008b8b" stroke="white" stroke-width="1" opacity="1"/>
<text x="746.43" y="509.18" font-family="DejaVu Sans, Arial, sans-serif" font-size="10.5" font-weight="normal" fill="#008b8b" text-anchor="start">7.B&#x27;-</text>
<circle cx="703.38" cy="470.88" r="5.20" fill="#008b8b" stroke="white" stroke-width="1" opacity="1"/>
<text x="717.78" y="455.59" font-family="DejaVu Sans, Arial, sans-serif" font-size="10.5" font-weight="normal" fill="#008b8b" text-anchor="start">7.C&#x27;-</text>
<circle cx="663.85" cy="435.95" r="5.20" fill="#2470c7" stroke="white" stroke-width="1" opacity="1"/>
<text x="671.68" y="416.46" font-family="DejaVu Sans, Arial, sans-serif" font-size="10.5" font-weight="normal" fill="#2470c7" text-anchor="start">8.1&#x27;-</text>
<circle cx="561.32" cy="424.71" r="5.20" fill="#2470c7" stroke="white" stroke-width="1" opacity="1"/>
<text x="554.64" y="404.80" font-family="DejaVu Sans, Arial, sans-serif" font-size="10.5" font-weight="normal" fill="#2470c7" text-anchor="end">8.2&#x27;-</text>
<circle cx="474.22" cy="480.70" r="5.20" fill="#2470c7" stroke="white" stroke-width="1" opacity="1"/>
<text x="456.67" y="469.16" font-family="DejaVu Sans, Arial, sans-serif" font-size="10.5" font-weight="normal" fill="#2470c7" text-anchor="end">8.3&#x27;-</text>
<circle cx="437.82" cy="578.03" r="5.20" fill="#2470c7" stroke="white" stroke-width="1" opacity="1"/>
<text x="416.85" y="579.00" font-family="DejaVu Sans, Arial, sans-serif" font-size="10.5" font-weight="normal" fill="#2470c7" text-anchor="end">8.4&#x27;-</text>
<circle cx="463.35" cy="679.11" r="5.20" fill="#2470c7" stroke="white" stroke-width="1" opacity="1"/>
<text x="446.50" y="691.65" font-family="DejaVu Sans, Arial, sans-serif" font-size="10.5" font-weight="normal" fill="#2470c7" text-anchor="end">8.5&#x27;-</text>
<circle cx="539.66" cy="750.63" r="5.20" fill="#2470c7" stroke="white" stroke-width="1" opacity="1"/>
<text x="532.04" y="770.20" font-family="DejaVu Sans, Arial, sans-serif" font-size="10.5" font-weight="normal" fill="#2470c7" text-anchor="end">8.6&#x27;-</text>
<circle cx="642.15" cy="773.01" r="5.20" fill="#2470c7" stroke="white" stroke-width="1" opacity="1"/>
<text x="645.43" y="793.75" font-family="DejaVu Sans, Arial, sans-serif" font-size="10.5" font-weight="normal" fill="#2470c7" text-anchor="middle">8.7&#x27;-</text>
<circle cx="742.89" cy="742.74" r="5.20" fill="#2470c7" stroke="white" stroke-width="1" opacity="1"/>
<text x="755.70" y="759.38" font-family="DejaVu Sans, Arial, sans-serif" font-size="10.5" font-weight="normal" fill="#2470c7" text-anchor="start">8.8&#x27;-</text>
<circle cx="818.64" cy="669.33" r="5.20" fill="#2470c7" stroke="white" stroke-width="1" opacity="1"/>
<text x="837.61" y="678.35" font-family="DejaVu Sans, Arial, sans-serif" font-size="10.5" font-weight="normal" fill="#2470c7" text-anchor="start">8.9&#x27;-</text>
<circle cx="855.00" cy="570.00" r="5.20" fill="#2470c7" stroke="white" stroke-width="1" opacity="1"/>
<text x="876.00" y="570.00" font-family="DejaVu Sans, Arial, sans-serif" font-size="10.5" font-weight="normal" fill="#2470c7" text-anchor="start">8.A&#x27;-</text>
<circle cx="847.24" cy="464.23" r="5.20" fill="#2470c7" stroke="white" stroke-width="1" opacity="1"/>
<text x="866.42" y="455.68" font-family="DejaVu Sans, Arial, sans-serif" font-size="10.5" font-weight="normal" fill="#2470c7" text-anchor="start">8.B&#x27;-</text>
<circle cx="798.83" cy="369.57" r="5.20" fill="#2470c7" stroke="white" stroke-width="1" opacity="1"/>
<text x="813.23" y="354.28" font-family="DejaVu Sans, Arial, sans-serif" font-size="10.5" font-weight="normal" fill="#2470c7" text-anchor="start">8.C&#x27;-</text>
<circle cx="718.82" cy="299.12" r="5.20" fill="#7b2cbf" stroke="white" stroke-width="1" opacity="1"/>
<text x="726.64" y="279.63" font-family="DejaVu Sans, Arial, sans-serif" font-size="10.5" font-weight="normal" fill="#7b2cbf" text-anchor="start">9.1&#x27;-</text>
<circle cx="511.68" cy="276.57" r="5.20" fill="#7b2cbf" stroke="white" stroke-width="1" opacity="1"/>
<text x="505.01" y="256.66" font-family="DejaVu Sans, Arial, sans-serif" font-size="10.5" font-weight="normal" fill="#7b2cbf" text-anchor="end">9.2&#x27;-</text>
<circle cx="335.92" cy="389.74" r="5.20" fill="#7b2cbf" stroke="white" stroke-width="1" opacity="1"/>
<text x="318.38" y="378.20" font-family="DejaVu Sans, Arial, sans-serif" font-size="10.5" font-weight="normal" fill="#7b2cbf" text-anchor="end">9.3&#x27;-</text>
<circle cx="262.65" cy="586.19" r="5.20" fill="#7b2cbf" stroke="white" stroke-width="1" opacity="1"/>
<text x="241.68" y="587.17" font-family="DejaVu Sans, Arial, sans-serif" font-size="10.5" font-weight="normal" fill="#7b2cbf" text-anchor="end">9.4&#x27;-</text>
<circle cx="314.29" cy="790.02" r="5.20" fill="#7b2cbf" stroke="white" stroke-width="1" opacity="1"/>
<text x="297.44" y="802.55" font-family="DejaVu Sans, Arial, sans-serif" font-size="10.5" font-weight="normal" fill="#7b2cbf" text-anchor="end">9.5&#x27;-</text>
<circle cx="468.24" cy="934.05" r="5.20" fill="#7b2cbf" stroke="white" stroke-width="1" opacity="1"/>
<text x="460.62" y="953.62" font-family="DejaVu Sans, Arial, sans-serif" font-size="10.5" font-weight="normal" fill="#7b2cbf" text-anchor="end">9.6&#x27;-</text>
<circle cx="674.76" cy="978.99" r="5.20" fill="#7b2cbf" stroke="white" stroke-width="1" opacity="1"/>
<text x="678.04" y="999.73" font-family="DejaVu Sans, Arial, sans-serif" font-size="10.5" font-weight="normal" fill="#7b2cbf" text-anchor="middle">9.7&#x27;-</text>
<circle cx="877.62" cy="917.85" r="5.20" fill="#7b2cbf" stroke="white" stroke-width="1" opacity="1"/>
<text x="890.42" y="934.50" font-family="DejaVu Sans, Arial, sans-serif" font-size="10.5" font-weight="normal" fill="#7b2cbf" text-anchor="start">9.8&#x27;-</text>
<circle cx="1030.00" cy="769.94" r="5.20" fill="#7b2cbf" stroke="white" stroke-width="1" opacity="1"/>
<text x="1048.96" y="778.97" font-family="DejaVu Sans, Arial, sans-serif" font-size="10.5" font-weight="normal" fill="#7b2cbf" text-anchor="start">9.9&#x27;-</text>
<circle cx="1103.00" cy="570.00" r="5.20" fill="#7b2cbf" stroke="white" stroke-width="1" opacity="1"/>
<text x="1124.00" y="570.00" font-family="DejaVu Sans, Arial, sans-serif" font-size="10.5" font-weight="normal" fill="#7b2cbf" text-anchor="start">9.A&#x27;-</text>
<line x1="610.00" y1="570.00" x2="1170.00" y2="570.00" stroke="#6a1b9a" stroke-width="3" opacity="0.75"/>
<text x="855.00" y="550.00" font-family="DejaVu Sans, Arial, sans-serif" font-size="17" font-weight="normal" fill="#6a1b9a" text-anchor="start">same pitch-class = same radial family</text>
<rect x="1180" y="110" width="540" height="360" rx="12" fill="white" stroke="#2f73c5" stroke-width="1.5"/>
<text x="1215.00" y="160.00" font-family="DejaVu Sans, Arial, sans-serif" font-size="18" font-weight="bold" fill="#111" text-anchor="start">CONSTRUCTION PRINCIPLE</text>
<text x="1215.00" y="205.00" font-family="DejaVu Sans, Arial, sans-serif" font-size="15" font-weight="normal" fill="#111" text-anchor="start">ω = ¹²√2 ≈ 1.059463094</text>
<text x="1215.00" y="233.00" font-family="DejaVu Sans, Arial, sans-serif" font-size="15" font-weight="normal" fill="#111" text-anchor="start">φ₀ = 360°</text>
<text x="1215.00" y="261.00" font-family="DejaVu Sans, Arial, sans-serif" font-size="15" font-weight="normal" fill="#111" text-anchor="start">φₙ₊₁ = φₙ / ω</text>
<text x="1215.00" y="289.00" font-family="DejaVu Sans, Arial, sans-serif" font-size="15" font-weight="normal" fill="#111" text-anchor="start">Φₙ = 2(φₙ − φₙ₊₁)</text>
<text x="1215.00" y="317.00" font-family="DejaVu Sans, Arial, sans-serif" font-size="15" font-weight="normal" fill="#111" text-anchor="start"></text>
<text x="1215.00" y="345.00" font-family="DejaVu Sans, Arial, sans-serif" font-size="15" font-weight="normal" fill="#111" text-anchor="start">Φ₁ + ... + Φ₁₂ = 360°</text>
<text x="1215.00" y="373.00" font-family="DejaVu Sans, Arial, sans-serif" font-size="15" font-weight="normal" fill="#111" text-anchor="start"></text>
<text x="1215.00" y="401.00" font-family="DejaVu Sans, Arial, sans-serif" font-size="15" font-weight="normal" fill="#111" text-anchor="start">Therefore sectors are unequal.</text>
<text x="1215.00" y="429.00" font-family="DejaVu Sans, Arial, sans-serif" font-size="15" font-weight="normal" fill="#111" text-anchor="start">They follow resonance growth, not 30° division.</text>
<rect x="1180" y="520" width="540" height="260" rx="12" fill="white" stroke="#2f73c5" stroke-width="1.5"/>
<text x="1215.00" y="570.00" font-family="DejaVu Sans, Arial, sans-serif" font-size="18" font-weight="bold" fill="#111" text-anchor="start">HOW TO READ</text>
<text x="1215.00" y="615.00" font-family="DejaVu Sans, Arial, sans-serif" font-size="15" font-weight="normal" fill="#111" text-anchor="start">Angle = pitch-class family.</text>
<text x="1215.00" y="645.00" font-family="DejaVu Sans, Arial, sans-serif" font-size="15" font-weight="normal" fill="#111" text-anchor="start">Radius = resonant octave growth.</text>
<text x="1215.00" y="675.00" font-family="DejaVu Sans, Arial, sans-serif" font-size="15" font-weight="normal" fill="#111" text-anchor="start">A full 12-step cycle returns to the same family.</text>
<text x="1215.00" y="705.00" font-family="DejaVu Sans, Arial, sans-serif" font-size="15" font-weight="normal" fill="#111" text-anchor="start">The inner angular sectors are resonance-weighted.</text>
<text x="900.00" y="1160.00" font-family="DejaVu Sans, Arial, sans-serif" font-size="15" font-weight="normal" fill="#111" text-anchor="middle">Generated with DejaVu Sans. Curve is dense resonance path, not straight polyline between note labels.</text>
</svg>
