<svg xmlns="http://www.w3.org/2000/svg" width="1920" height="1080" viewBox="0 0 1920 1080">
<rect width="1920" height="1080" fill="#fffdf7"/>
<text x="960.0" y="70" font-family="DejaVu Sans, Arial, sans-serif" font-size="54" font-weight="bold" fill="#003366" text-anchor="middle">TEMPERED TIME</text>
<text x="960.0" y="112" font-family="DejaVu Sans, Arial, sans-serif" font-size="34" font-weight="bold" fill="#1f5d9d" text-anchor="middle">TIME60 PRINCIPLE</text>
<text x="215" y="170" font-family="DejaVu Sans, Arial, sans-serif" font-size="24" font-weight="bold" fill="#003366" text-anchor="middle">METER 3/4</text>
<line x1="70" y1="215" x2="360" y2="215" stroke="#111" stroke-width="2"/>
<line x1="70" y1="227" x2="360" y2="227" stroke="#111" stroke-width="2"/>
<line x1="70" y1="239" x2="360" y2="239" stroke="#111" stroke-width="2"/>
<line x1="70" y1="251" x2="360" y2="251" stroke="#111" stroke-width="2"/>
<line x1="70" y1="263" x2="360" y2="263" stroke="#111" stroke-width="2"/>
<text x="100" y="260" font-family="DejaVu Sans, Arial, sans-serif" font-size="64" font-weight="normal" fill="#111" text-anchor="middle">𝄞</text>
<text x="138" y="236" font-family="DejaVu Sans, Arial, sans-serif" font-size="30" font-weight="bold" fill="#111" text-anchor="middle">3</text>
<text x="138" y="266" font-family="DejaVu Sans, Arial, sans-serif" font-size="30" font-weight="bold" fill="#111" text-anchor="middle">4</text>
<line x1="175" y1="215" x2="175" y2="263" stroke="#111" stroke-width="2"/>
<line x1="348" y1="215" x2="348" y2="263" stroke="#111" stroke-width="2"/>
<ellipse cx="200.0" cy="255" rx="10" ry="7" fill="#111" transform="rotate(-18 200.0 255)"/>
<line x1="209.0" y1="255" x2="209.0" y2="203" stroke="#111" stroke-width="3"/>
<ellipse cx="265.0" cy="255" rx="10" ry="7" fill="#111" transform="rotate(-18 265.0 255)"/>
<line x1="274.0" y1="255" x2="274.0" y2="203" stroke="#111" stroke-width="3"/>
<ellipse cx="330.0" cy="255" rx="10" ry="7" fill="#111" transform="rotate(-18 330.0 255)"/>
<line x1="339.0" y1="255" x2="339.0" y2="203" stroke="#111" stroke-width="3"/>
<text x="215" y="315" font-family="DejaVu Sans, Arial, sans-serif" font-size="21" font-weight="normal" fill="#111" text-anchor="middle">Three beats in a bar</text>
<text x="545" y="170" font-family="DejaVu Sans, Arial, sans-serif" font-size="24" font-weight="bold" fill="#003366" text-anchor="middle">METER 5/4</text>
<line x1="400" y1="215" x2="690" y2="215" stroke="#111" stroke-width="2"/>
<line x1="400" y1="227" x2="690" y2="227" stroke="#111" stroke-width="2"/>
<line x1="400" y1="239" x2="690" y2="239" stroke="#111" stroke-width="2"/>
<line x1="400" y1="251" x2="690" y2="251" stroke="#111" stroke-width="2"/>
<line x1="400" y1="263" x2="690" y2="263" stroke="#111" stroke-width="2"/>
<text x="430" y="260" font-family="DejaVu Sans, Arial, sans-serif" font-size="64" font-weight="normal" fill="#111" text-anchor="middle">𝄞</text>
<text x="468" y="236" font-family="DejaVu Sans, Arial, sans-serif" font-size="30" font-weight="bold" fill="#111" text-anchor="middle">5</text>
<text x="468" y="266" font-family="DejaVu Sans, Arial, sans-serif" font-size="30" font-weight="bold" fill="#111" text-anchor="middle">4</text>
<line x1="505" y1="215" x2="505" y2="263" stroke="#111" stroke-width="2"/>
<line x1="678" y1="215" x2="678" y2="263" stroke="#111" stroke-width="2"/>
<ellipse cx="530.0" cy="255" rx="10" ry="7" fill="#111" transform="rotate(-18 530.0 255)"/>
<line x1="539.0" y1="255" x2="539.0" y2="203" stroke="#111" stroke-width="3"/>
<ellipse cx="562.5" cy="255" rx="10" ry="7" fill="#111" transform="rotate(-18 562.5 255)"/>
<line x1="571.5" y1="255" x2="571.5" y2="203" stroke="#111" stroke-width="3"/>
<ellipse cx="595.0" cy="255" rx="10" ry="7" fill="#111" transform="rotate(-18 595.0 255)"/>
<line x1="604.0" y1="255" x2="604.0" y2="203" stroke="#111" stroke-width="3"/>
<ellipse cx="627.5" cy="255" rx="10" ry="7" fill="#111" transform="rotate(-18 627.5 255)"/>
<line x1="636.5" y1="255" x2="636.5" y2="203" stroke="#111" stroke-width="3"/>
<ellipse cx="660.0" cy="255" rx="10" ry="7" fill="#111" transform="rotate(-18 660.0 255)"/>
<line x1="669.0" y1="255" x2="669.0" y2="203" stroke="#111" stroke-width="3"/>
<text x="545" y="315" font-family="DejaVu Sans, Arial, sans-serif" font-size="21" font-weight="normal" fill="#111" text-anchor="middle">Five beats in a bar</text>
<text x="875" y="170" font-family="DejaVu Sans, Arial, sans-serif" font-size="24" font-weight="bold" fill="#003366" text-anchor="middle">METER 7/8</text>
<line x1="730" y1="215" x2="1020" y2="215" stroke="#111" stroke-width="2"/>
<line x1="730" y1="227" x2="1020" y2="227" stroke="#111" stroke-width="2"/>
<line x1="730" y1="239" x2="1020" y2="239" stroke="#111" stroke-width="2"/>
<line x1="730" y1="251" x2="1020" y2="251" stroke="#111" stroke-width="2"/>
<line x1="730" y1="263" x2="1020" y2="263" stroke="#111" stroke-width="2"/>
<text x="760" y="260" font-family="DejaVu Sans, Arial, sans-serif" font-size="64" font-weight="normal" fill="#111" text-anchor="middle">𝄞</text>
<text x="798" y="236" font-family="DejaVu Sans, Arial, sans-serif" font-size="30" font-weight="bold" fill="#111" text-anchor="middle">7</text>
<text x="798" y="266" font-family="DejaVu Sans, Arial, sans-serif" font-size="30" font-weight="bold" fill="#111" text-anchor="middle">8</text>
<line x1="835" y1="215" x2="835" y2="263" stroke="#111" stroke-width="2"/>
<line x1="1008" y1="215" x2="1008" y2="263" stroke="#111" stroke-width="2"/>
<ellipse cx="860.0" cy="255" rx="10" ry="7" fill="#111" transform="rotate(-18 860.0 255)"/>
<line x1="869.0" y1="255" x2="869.0" y2="203" stroke="#111" stroke-width="3"/>
<ellipse cx="881.6666666666666" cy="255" rx="10" ry="7" fill="#111" transform="rotate(-18 881.6666666666666 255)"/>
<line x1="890.6666666666666" y1="255" x2="890.6666666666666" y2="203" stroke="#111" stroke-width="3"/>
<ellipse cx="903.3333333333334" cy="255" rx="10" ry="7" fill="#111" transform="rotate(-18 903.3333333333334 255)"/>
<line x1="912.3333333333334" y1="255" x2="912.3333333333334" y2="203" stroke="#111" stroke-width="3"/>
<ellipse cx="925.0" cy="255" rx="10" ry="7" fill="#111" transform="rotate(-18 925.0 255)"/>
<line x1="934.0" y1="255" x2="934.0" y2="203" stroke="#111" stroke-width="3"/>
<ellipse cx="946.6666666666666" cy="255" rx="10" ry="7" fill="#111" transform="rotate(-18 946.6666666666666 255)"/>
<line x1="955.6666666666666" y1="255" x2="955.6666666666666" y2="203" stroke="#111" stroke-width="3"/>
<ellipse cx="968.3333333333334" cy="255" rx="10" ry="7" fill="#111" transform="rotate(-18 968.3333333333334 255)"/>
<line x1="977.3333333333334" y1="255" x2="977.3333333333334" y2="203" stroke="#111" stroke-width="3"/>
<ellipse cx="990.0" cy="255" rx="10" ry="7" fill="#111" transform="rotate(-18 990.0 255)"/>
<line x1="999.0" y1="255" x2="999.0" y2="203" stroke="#111" stroke-width="3"/>
<text x="875" y="315" font-family="DejaVu Sans, Arial, sans-serif" font-size="21" font-weight="normal" fill="#111" text-anchor="middle">Seven eighths in a bar</text>
<text x="1205" y="170" font-family="DejaVu Sans, Arial, sans-serif" font-size="24" font-weight="bold" fill="#003366" text-anchor="middle">PICKUP MEASURE</text>
<line x1="1060" y1="215" x2="1350" y2="215" stroke="#111" stroke-width="2"/>
<line x1="1060" y1="227" x2="1350" y2="227" stroke="#111" stroke-width="2"/>
<line x1="1060" y1="239" x2="1350" y2="239" stroke="#111" stroke-width="2"/>
<line x1="1060" y1="251" x2="1350" y2="251" stroke="#111" stroke-width="2"/>
<line x1="1060" y1="263" x2="1350" y2="263" stroke="#111" stroke-width="2"/>
<text x="1090" y="260" font-family="DejaVu Sans, Arial, sans-serif" font-size="64" font-weight="normal" fill="#111" text-anchor="middle">𝄞</text>
<ellipse cx="1170" cy="270" rx="10" ry="7" fill="#111" transform="rotate(-18 1170 270)"/>
<line x1="1179" y1="270" x2="1179" y2="218" stroke="#111" stroke-width="3"/>
<line x1="1230" y1="215" x2="1230" y2="263" stroke="#111" stroke-width="2"/>
<text x="1255" y="236" font-family="DejaVu Sans, Arial, sans-serif" font-size="30" font-weight="bold" fill="#111" text-anchor="middle">4</text>
<text x="1255" y="266" font-family="DejaVu Sans, Arial, sans-serif" font-size="30" font-weight="bold" fill="#111" text-anchor="middle">4</text>
<ellipse cx="1295" cy="255" rx="10" ry="7" fill="#111" transform="rotate(-18 1295 255)"/>
<line x1="1304" y1="255" x2="1304" y2="203" stroke="#111" stroke-width="3"/>
<text x="1205" y="315" font-family="DejaVu Sans, Arial, sans-serif" font-size="18" font-weight="normal" fill="#111" text-anchor="middle">Incomplete measure before the first full bar</text>
<text x="1535" y="170" font-family="DejaVu Sans, Arial, sans-serif" font-size="24" font-weight="bold" fill="#003366" text-anchor="middle">DOTTED NOTE</text>
<line x1="1390" y1="215" x2="1680" y2="215" stroke="#111" stroke-width="2"/>
<line x1="1390" y1="227" x2="1680" y2="227" stroke="#111" stroke-width="2"/>
<line x1="1390" y1="239" x2="1680" y2="239" stroke="#111" stroke-width="2"/>
<line x1="1390" y1="251" x2="1680" y2="251" stroke="#111" stroke-width="2"/>
<line x1="1390" y1="263" x2="1680" y2="263" stroke="#111" stroke-width="2"/>
<ellipse cx="1475" cy="255" rx="10" ry="7" fill="#111" transform="rotate(-18 1475 255)"/>
<line x1="1484" y1="255" x2="1484" y2="203" stroke="#111" stroke-width="3"/>
<circle cx="1499" cy="253" r="3.5" fill="#111"/>
<ellipse cx="1605" cy="255" rx="10" ry="7" fill="#111" transform="rotate(-18 1605 255)"/>
<line x1="1614" y1="255" x2="1614" y2="203" stroke="#111" stroke-width="3"/>
<text x="1535" y="315" font-family="DejaVu Sans, Arial, sans-serif" font-size="18" font-weight="normal" fill="#111" text-anchor="middle">The dot extends duration by half</text>
<text x="1745" y="170" font-family="DejaVu Sans, Arial, sans-serif" font-size="24" font-weight="bold" fill="#003366" text-anchor="middle">TIE ACROSS BAR</text>
<line x1="1600" y1="215" x2="1890" y2="215" stroke="#111" stroke-width="2"/>
<line x1="1600" y1="227" x2="1890" y2="227" stroke="#111" stroke-width="2"/>
<line x1="1600" y1="239" x2="1890" y2="239" stroke="#111" stroke-width="2"/>
<line x1="1600" y1="251" x2="1890" y2="251" stroke="#111" stroke-width="2"/>
<line x1="1600" y1="263" x2="1890" y2="263" stroke="#111" stroke-width="2"/>
<ellipse cx="1695" cy="255" rx="10" ry="7" fill="#111" transform="rotate(-18 1695 255)"/>
<line x1="1704" y1="255" x2="1704" y2="203" stroke="#111" stroke-width="3"/>
<line x1="1745" y1="215" x2="1745" y2="263" stroke="#111" stroke-width="2"/>
<ellipse cx="1805" cy="255" rx="10" ry="7" fill="#111" transform="rotate(-18 1805 255)"/>
<line x1="1814" y1="255" x2="1814" y2="203" stroke="#111" stroke-width="3"/>
<path d="M 98 0" fill="none"/>
<path d="M 1695 275 Q 1750 300 1805 275" fill="none" stroke="#111" stroke-width="3"/>
<text x="1745" y="315" font-family="DejaVu Sans, Arial, sans-serif" font-size="18" font-weight="normal" fill="#111" text-anchor="middle">One note continues into the next bar</text>
<rect x="45" y="390" width="1830" height="85" rx="12" fill="#f8fbff" stroke="#0070c0" stroke-width="2"/>
<text x="960.0" y="425" font-family="DejaVu Sans, Arial, sans-serif" font-size="27" font-weight="bold" fill="#003366" text-anchor="middle">Musical time contains meters, durations, pickup measures, dotted notes and tied notes.</text>
<text x="960.0" y="460" font-family="DejaVu Sans, Arial, sans-serif" font-size="26" font-weight="bold" fill="#003366" text-anchor="middle">All of them require one common temporal coordinate system.</text>
<path d="M 960 485 L 960 535" stroke="#003366" stroke-width="8"/>
<path d="M 940 515 L 960 540 L 980 515" fill="#003366"/>
<rect x="55" y="560" width="1240" height="310" rx="14" fill="white" stroke="#0070c0" stroke-width="2"/>
<text x="675" y="605" font-family="DejaVu Sans, Arial, sans-serif" font-size="38" font-weight="bold" fill="#003366" text-anchor="middle">TIME60</text>
<text x="145" y="653" font-family="DejaVu Sans, Arial, sans-serif" font-size="22" font-weight="bold" fill="#003366" text-anchor="start">1 second</text>
<line x1="315" y1="645" x2="1215" y2="645" stroke="#111" stroke-width="2"/>
<circle cx="315" cy="645" r="5" fill="#111"/>
<circle cx="1215" cy="645" r="5" fill="#111"/>
<text x="145" y="728" font-family="DejaVu Sans, Arial, sans-serif" font-size="22" font-weight="bold" fill="#003366" text-anchor="start">60 parts</text>
<line x1="315" y1="720" x2="1215" y2="720" stroke="#111" stroke-width="2"/>
<line x1="315.0" y1="714" x2="315.0" y2="726" stroke="#111" stroke-width="1"/>
<line x1="330.0" y1="714" x2="330.0" y2="726" stroke="#111" stroke-width="1"/>
<line x1="345.0" y1="714" x2="345.0" y2="726" stroke="#111" stroke-width="1"/>
<line x1="360.0" y1="714" x2="360.0" y2="726" stroke="#111" stroke-width="1"/>
<line x1="375.0" y1="714" x2="375.0" y2="726" stroke="#111" stroke-width="1"/>
<line x1="390.0" y1="714" x2="390.0" y2="726" stroke="#111" stroke-width="1"/>
<line x1="405.0" y1="714" x2="405.0" y2="726" stroke="#111" stroke-width="1"/>
<line x1="420.0" y1="714" x2="420.0" y2="726" stroke="#111" stroke-width="1"/>
<line x1="435.0" y1="714" x2="435.0" y2="726" stroke="#111" stroke-width="1"/>
<line x1="450.0" y1="714" x2="450.0" y2="726" stroke="#111" stroke-width="1"/>
<line x1="465.0" y1="714" x2="465.0" y2="726" stroke="#111" stroke-width="1"/>
<line x1="480.0" y1="714" x2="480.0" y2="726" stroke="#111" stroke-width="1"/>
<line x1="495.0" y1="714" x2="495.0" y2="726" stroke="#111" stroke-width="1"/>
<line x1="510.0" y1="714" x2="510.0" y2="726" stroke="#111" stroke-width="1"/>
<line x1="525.0" y1="714" x2="525.0" y2="726" stroke="#111" stroke-width="1"/>
<line x1="540.0" y1="714" x2="540.0" y2="726" stroke="#111" stroke-width="1"/>
<line x1="555.0" y1="714" x2="555.0" y2="726" stroke="#111" stroke-width="1"/>
<line x1="570.0" y1="714" x2="570.0" y2="726" stroke="#111" stroke-width="1"/>
<line x1="585.0" y1="714" x2="585.0" y2="726" stroke="#111" stroke-width="1"/>
<line x1="600.0" y1="714" x2="600.0" y2="726" stroke="#111" stroke-width="1"/>
<line x1="615.0" y1="714" x2="615.0" y2="726" stroke="#111" stroke-width="1"/>
<line x1="630.0" y1="714" x2="630.0" y2="726" stroke="#111" stroke-width="1"/>
<line x1="645.0" y1="714" x2="645.0" y2="726" stroke="#111" stroke-width="1"/>
<line x1="660.0" y1="714" x2="660.0" y2="726" stroke="#111" stroke-width="1"/>
<line x1="675.0" y1="714" x2="675.0" y2="726" stroke="#111" stroke-width="1"/>
<line x1="690.0" y1="714" x2="690.0" y2="726" stroke="#111" stroke-width="1"/>
<line x1="705.0" y1="714" x2="705.0" y2="726" stroke="#111" stroke-width="1"/>
<line x1="720.0" y1="714" x2="720.0" y2="726" stroke="#111" stroke-width="1"/>
<line x1="735.0" y1="714" x2="735.0" y2="726" stroke="#111" stroke-width="1"/>
<line x1="750.0" y1="714" x2="750.0" y2="726" stroke="#111" stroke-width="1"/>
<line x1="765.0" y1="714" x2="765.0" y2="726" stroke="#111" stroke-width="1"/>
<line x1="780.0" y1="714" x2="780.0" y2="726" stroke="#111" stroke-width="1"/>
<line x1="795.0" y1="714" x2="795.0" y2="726" stroke="#111" stroke-width="1"/>
<line x1="810.0" y1="714" x2="810.0" y2="726" stroke="#111" stroke-width="1"/>
<line x1="825.0" y1="714" x2="825.0" y2="726" stroke="#111" stroke-width="1"/>
<line x1="840.0" y1="714" x2="840.0" y2="726" stroke="#111" stroke-width="1"/>
<line x1="855.0" y1="714" x2="855.0" y2="726" stroke="#111" stroke-width="1"/>
<line x1="870.0" y1="714" x2="870.0" y2="726" stroke="#111" stroke-width="1"/>
<line x1="885.0" y1="714" x2="885.0" y2="726" stroke="#111" stroke-width="1"/>
<line x1="900.0" y1="714" x2="900.0" y2="726" stroke="#111" stroke-width="1"/>
<line x1="915.0" y1="714" x2="915.0" y2="726" stroke="#111" stroke-width="1"/>
<line x1="930.0" y1="714" x2="930.0" y2="726" stroke="#111" stroke-width="1"/>
<line x1="945.0" y1="714" x2="945.0" y2="726" stroke="#111" stroke-width="1"/>
<line x1="960.0" y1="714" x2="960.0" y2="726" stroke="#111" stroke-width="1"/>
<line x1="975.0" y1="714" x2="975.0" y2="726" stroke="#111" stroke-width="1"/>
<line x1="990.0" y1="714" x2="990.0" y2="726" stroke="#111" stroke-width="1"/>
<line x1="1005.0" y1="714" x2="1005.0" y2="726" stroke="#111" stroke-width="1"/>
<line x1="1020.0" y1="714" x2="1020.0" y2="726" stroke="#111" stroke-width="1"/>
<line x1="1035.0" y1="714" x2="1035.0" y2="726" stroke="#111" stroke-width="1"/>
<line x1="1050.0" y1="714" x2="1050.0" y2="726" stroke="#111" stroke-width="1"/>
<line x1="1065.0" y1="714" x2="1065.0" y2="726" stroke="#111" stroke-width="1"/>
<line x1="1080.0" y1="714" x2="1080.0" y2="726" stroke="#111" stroke-width="1"/>
<line x1="1095.0" y1="714" x2="1095.0" y2="726" stroke="#111" stroke-width="1"/>
<line x1="1110.0" y1="714" x2="1110.0" y2="726" stroke="#111" stroke-width="1"/>
<line x1="1125.0" y1="714" x2="1125.0" y2="726" stroke="#111" stroke-width="1"/>
<line x1="1140.0" y1="714" x2="1140.0" y2="726" stroke="#111" stroke-width="1"/>
<line x1="1155.0" y1="714" x2="1155.0" y2="726" stroke="#111" stroke-width="1"/>
<line x1="1170.0" y1="714" x2="1170.0" y2="726" stroke="#111" stroke-width="1"/>
<line x1="1185.0" y1="714" x2="1185.0" y2="726" stroke="#111" stroke-width="1"/>
<line x1="1200.0" y1="714" x2="1200.0" y2="726" stroke="#111" stroke-width="1"/>
<line x1="1215.0" y1="714" x2="1215.0" y2="726" stroke="#111" stroke-width="1"/>
<text x="145" y="803" font-family="DejaVu Sans, Arial, sans-serif" font-size="22" font-weight="bold" fill="#003366" text-anchor="start">3600 parts</text>
<line x1="315" y1="795" x2="1215" y2="795" stroke="#111" stroke-width="2"/>
<line x1="315.0" y1="790" x2="315.0" y2="800" stroke="#111" stroke-width="1"/>
<line x1="315.0" y1="784" x2="315.0" y2="806" stroke="#111" stroke-width="1"/>
<line x1="330.0" y1="790" x2="330.0" y2="800" stroke="#111" stroke-width="1"/>
<line x1="345.0" y1="790" x2="345.0" y2="800" stroke="#111" stroke-width="1"/>
<line x1="360.0" y1="790" x2="360.0" y2="800" stroke="#111" stroke-width="1"/>
<line x1="375.0" y1="790" x2="375.0" y2="800" stroke="#111" stroke-width="1"/>
<line x1="390.0" y1="790" x2="390.0" y2="800" stroke="#111" stroke-width="1"/>
<line x1="390.0" y1="784" x2="390.0" y2="806" stroke="#111" stroke-width="1"/>
<line x1="405.0" y1="790" x2="405.0" y2="800" stroke="#111" stroke-width="1"/>
<line x1="420.0" y1="790" x2="420.0" y2="800" stroke="#111" stroke-width="1"/>
<line x1="435.0" y1="790" x2="435.0" y2="800" stroke="#111" stroke-width="1"/>
<line x1="450.0" y1="790" x2="450.0" y2="800" stroke="#111" stroke-width="1"/>
<line x1="465.0" y1="790" x2="465.0" y2="800" stroke="#111" stroke-width="1"/>
<line x1="465.0" y1="784" x2="465.0" y2="806" stroke="#111" stroke-width="1"/>
<line x1="480.0" y1="790" x2="480.0" y2="800" stroke="#111" stroke-width="1"/>
<line x1="495.0" y1="790" x2="495.0" y2="800" stroke="#111" stroke-width="1"/>
<line x1="510.0" y1="790" x2="510.0" y2="800" stroke="#111" stroke-width="1"/>
<line x1="525.0" y1="790" x2="525.0" y2="800" stroke="#111" stroke-width="1"/>
<line x1="540.0" y1="790" x2="540.0" y2="800" stroke="#111" stroke-width="1"/>
<line x1="540.0" y1="784" x2="540.0" y2="806" stroke="#111" stroke-width="1"/>
<line x1="555.0" y1="790" x2="555.0" y2="800" stroke="#111" stroke-width="1"/>
<line x1="570.0" y1="790" x2="570.0" y2="800" stroke="#111" stroke-width="1"/>
<line x1="585.0" y1="790" x2="585.0" y2="800" stroke="#111" stroke-width="1"/>
<line x1="600.0" y1="790" x2="600.0" y2="800" stroke="#111" stroke-width="1"/>
<line x1="615.0" y1="790" x2="615.0" y2="800" stroke="#111" stroke-width="1"/>
<line x1="615.0" y1="784" x2="615.0" y2="806" stroke="#111" stroke-width="1"/>
<line x1="630.0" y1="790" x2="630.0" y2="800" stroke="#111" stroke-width="1"/>
<line x1="645.0" y1="790" x2="645.0" y2="800" stroke="#111" stroke-width="1"/>
<line x1="660.0" y1="790" x2="660.0" y2="800" stroke="#111" stroke-width="1"/>
<line x1="675.0" y1="790" x2="675.0" y2="800" stroke="#111" stroke-width="1"/>
<line x1="690.0" y1="790" x2="690.0" y2="800" stroke="#111" stroke-width="1"/>
<line x1="690.0" y1="784" x2="690.0" y2="806" stroke="#111" stroke-width="1"/>
<line x1="705.0" y1="790" x2="705.0" y2="800" stroke="#111" stroke-width="1"/>
<line x1="720.0" y1="790" x2="720.0" y2="800" stroke="#111" stroke-width="1"/>
<line x1="735.0" y1="790" x2="735.0" y2="800" stroke="#111" stroke-width="1"/>
<line x1="750.0" y1="790" x2="750.0" y2="800" stroke="#111" stroke-width="1"/>
<line x1="765.0" y1="790" x2="765.0" y2="800" stroke="#111" stroke-width="1"/>
<line x1="765.0" y1="784" x2="765.0" y2="806" stroke="#111" stroke-width="1"/>
<line x1="780.0" y1="790" x2="780.0" y2="800" stroke="#111" stroke-width="1"/>
<line x1="795.0" y1="790" x2="795.0" y2="800" stroke="#111" stroke-width="1"/>
<line x1="810.0" y1="790" x2="810.0" y2="800" stroke="#111" stroke-width="1"/>
<line x1="825.0" y1="790" x2="825.0" y2="800" stroke="#111" stroke-width="1"/>
<line x1="840.0" y1="790" x2="840.0" y2="800" stroke="#111" stroke-width="1"/>
<line x1="840.0" y1="784" x2="840.0" y2="806" stroke="#111" stroke-width="1"/>
<line x1="855.0" y1="790" x2="855.0" y2="800" stroke="#111" stroke-width="1"/>
<line x1="870.0" y1="790" x2="870.0" y2="800" stroke="#111" stroke-width="1"/>
<line x1="885.0" y1="790" x2="885.0" y2="800" stroke="#111" stroke-width="1"/>
<line x1="900.0" y1="790" x2="900.0" y2="800" stroke="#111" stroke-width="1"/>
<line x1="915.0" y1="790" x2="915.0" y2="800" stroke="#111" stroke-width="1"/>
<line x1="915.0" y1="784" x2="915.0" y2="806" stroke="#111" stroke-width="1"/>
<line x1="930.0" y1="790" x2="930.0" y2="800" stroke="#111" stroke-width="1"/>
<line x1="945.0" y1="790" x2="945.0" y2="800" stroke="#111" stroke-width="1"/>
<line x1="960.0" y1="790" x2="960.0" y2="800" stroke="#111" stroke-width="1"/>
<line x1="975.0" y1="790" x2="975.0" y2="800" stroke="#111" stroke-width="1"/>
<line x1="990.0" y1="790" x2="990.0" y2="800" stroke="#111" stroke-width="1"/>
<line x1="990.0" y1="784" x2="990.0" y2="806" stroke="#111" stroke-width="1"/>
<line x1="1005.0" y1="790" x2="1005.0" y2="800" stroke="#111" stroke-width="1"/>
<line x1="1020.0" y1="790" x2="1020.0" y2="800" stroke="#111" stroke-width="1"/>
<line x1="1035.0" y1="790" x2="1035.0" y2="800" stroke="#111" stroke-width="1"/>
<line x1="1050.0" y1="790" x2="1050.0" y2="800" stroke="#111" stroke-width="1"/>
<line x1="1065.0" y1="790" x2="1065.0" y2="800" stroke="#111" stroke-width="1"/>
<line x1="1065.0" y1="784" x2="1065.0" y2="806" stroke="#111" stroke-width="1"/>
<line x1="1080.0" y1="790" x2="1080.0" y2="800" stroke="#111" stroke-width="1"/>
<line x1="1095.0" y1="790" x2="1095.0" y2="800" stroke="#111" stroke-width="1"/>
<line x1="1110.0" y1="790" x2="1110.0" y2="800" stroke="#111" stroke-width="1"/>
<line x1="1125.0" y1="790" x2="1125.0" y2="800" stroke="#111" stroke-width="1"/>
<line x1="1140.0" y1="790" x2="1140.0" y2="800" stroke="#111" stroke-width="1"/>
<line x1="1140.0" y1="784" x2="1140.0" y2="806" stroke="#111" stroke-width="1"/>
<line x1="1155.0" y1="790" x2="1155.0" y2="800" stroke="#111" stroke-width="1"/>
<line x1="1170.0" y1="790" x2="1170.0" y2="800" stroke="#111" stroke-width="1"/>
<line x1="1185.0" y1="790" x2="1185.0" y2="800" stroke="#111" stroke-width="1"/>
<line x1="1200.0" y1="790" x2="1200.0" y2="800" stroke="#111" stroke-width="1"/>
<line x1="1215.0" y1="790" x2="1215.0" y2="800" stroke="#111" stroke-width="1"/>
<line x1="1215.0" y1="784" x2="1215.0" y2="806" stroke="#111" stroke-width="1"/>
<text x="145" y="878" font-family="DejaVu Sans, Arial, sans-serif" font-size="22" font-weight="bold" fill="#003366" text-anchor="start">216000 parts</text>
<line x1="315" y1="870" x2="1215" y2="870" stroke="#111" stroke-width="2"/>
<line x1="315.0" y1="866" x2="315.0" y2="874" stroke="#111" stroke-width="0.8"/>
<line x1="322.5" y1="866" x2="322.5" y2="874" stroke="#111" stroke-width="0.8"/>
<line x1="330.0" y1="866" x2="330.0" y2="874" stroke="#111" stroke-width="0.8"/>
<line x1="337.5" y1="866" x2="337.5" y2="874" stroke="#111" stroke-width="0.8"/>
<line x1="345.0" y1="866" x2="345.0" y2="874" stroke="#111" stroke-width="0.8"/>
<line x1="352.5" y1="866" x2="352.5" y2="874" stroke="#111" stroke-width="0.8"/>
<line x1="360.0" y1="866" x2="360.0" y2="874" stroke="#111" stroke-width="0.8"/>
<line x1="367.5" y1="866" x2="367.5" y2="874" stroke="#111" stroke-width="0.8"/>
<line x1="375.0" y1="866" x2="375.0" y2="874" stroke="#111" stroke-width="0.8"/>
<line x1="382.5" y1="866" x2="382.5" y2="874" stroke="#111" stroke-width="0.8"/>
<line x1="390.0" y1="866" x2="390.0" y2="874" stroke="#111" stroke-width="0.8"/>
<line x1="397.5" y1="866" x2="397.5" y2="874" stroke="#111" stroke-width="0.8"/>
<line x1="405.0" y1="866" x2="405.0" y2="874" stroke="#111" stroke-width="0.8"/>
<line x1="412.5" y1="866" x2="412.5" y2="874" stroke="#111" stroke-width="0.8"/>
<line x1="420.0" y1="866" x2="420.0" y2="874" stroke="#111" stroke-width="0.8"/>
<line x1="427.5" y1="866" x2="427.5" y2="874" stroke="#111" stroke-width="0.8"/>
<line x1="435.0" y1="866" x2="435.0" y2="874" stroke="#111" stroke-width="0.8"/>
<line x1="442.5" y1="866" x2="442.5" y2="874" stroke="#111" stroke-width="0.8"/>
<line x1="450.0" y1="866" x2="450.0" y2="874" stroke="#111" stroke-width="0.8"/>
<line x1="457.5" y1="866" x2="457.5" y2="874" stroke="#111" stroke-width="0.8"/>
<line x1="465.0" y1="866" x2="465.0" y2="874" stroke="#111" stroke-width="0.8"/>
<line x1="472.5" y1="866" x2="472.5" y2="874" stroke="#111" stroke-width="0.8"/>
<line x1="480.0" y1="866" x2="480.0" y2="874" stroke="#111" stroke-width="0.8"/>
<line x1="487.5" y1="866" x2="487.5" y2="874" stroke="#111" stroke-width="0.8"/>
<line x1="495.0" y1="866" x2="495.0" y2="874" stroke="#111" stroke-width="0.8"/>
<line x1="502.5" y1="866" x2="502.5" y2="874" stroke="#111" stroke-width="0.8"/>
<line x1="510.0" y1="866" x2="510.0" y2="874" stroke="#111" stroke-width="0.8"/>
<line x1="517.5" y1="866" x2="517.5" y2="874" stroke="#111" stroke-width="0.8"/>
<line x1="525.0" y1="866" x2="525.0" y2="874" stroke="#111" stroke-width="0.8"/>
<line x1="532.5" y1="866" x2="532.5" y2="874" stroke="#111" stroke-width="0.8"/>
<line x1="540.0" y1="866" x2="540.0" y2="874" stroke="#111" stroke-width="0.8"/>
<line x1="547.5" y1="866" x2="547.5" y2="874" stroke="#111" stroke-width="0.8"/>
<line x1="555.0" y1="866" x2="555.0" y2="874" stroke="#111" stroke-width="0.8"/>
<line x1="562.5" y1="866" x2="562.5" y2="874" stroke="#111" stroke-width="0.8"/>
<line x1="570.0" y1="866" x2="570.0" y2="874" stroke="#111" stroke-width="0.8"/>
<line x1="577.5" y1="866" x2="577.5" y2="874" stroke="#111" stroke-width="0.8"/>
<line x1="585.0" y1="866" x2="585.0" y2="874" stroke="#111" stroke-width="0.8"/>
<line x1="592.5" y1="866" x2="592.5" y2="874" stroke="#111" stroke-width="0.8"/>
<line x1="600.0" y1="866" x2="600.0" y2="874" stroke="#111" stroke-width="0.8"/>
<line x1="607.5" y1="866" x2="607.5" y2="874" stroke="#111" stroke-width="0.8"/>
<line x1="615.0" y1="866" x2="615.0" y2="874" stroke="#111" stroke-width="0.8"/>
<line x1="622.5" y1="866" x2="622.5" y2="874" stroke="#111" stroke-width="0.8"/>
<line x1="630.0" y1="866" x2="630.0" y2="874" stroke="#111" stroke-width="0.8"/>
<line x1="637.5" y1="866" x2="637.5" y2="874" stroke="#111" stroke-width="0.8"/>
<line x1="645.0" y1="866" x2="645.0" y2="874" stroke="#111" stroke-width="0.8"/>
<line x1="652.5" y1="866" x2="652.5" y2="874" stroke="#111" stroke-width="0.8"/>
<line x1="660.0" y1="866" x2="660.0" y2="874" stroke="#111" stroke-width="0.8"/>
<line x1="667.5" y1="866" x2="667.5" y2="874" stroke="#111" stroke-width="0.8"/>
<line x1="675.0" y1="866" x2="675.0" y2="874" stroke="#111" stroke-width="0.8"/>
<line x1="682.5" y1="866" x2="682.5" y2="874" stroke="#111" stroke-width="0.8"/>
<line x1="690.0" y1="866" x2="690.0" y2="874" stroke="#111" stroke-width="0.8"/>
<line x1="697.5" y1="866" x2="697.5" y2="874" stroke="#111" stroke-width="0.8"/>
<line x1="705.0" y1="866" x2="705.0" y2="874" stroke="#111" stroke-width="0.8"/>
<line x1="712.5" y1="866" x2="712.5" y2="874" stroke="#111" stroke-width="0.8"/>
<line x1="720.0" y1="866" x2="720.0" y2="874" stroke="#111" stroke-width="0.8"/>
<line x1="727.5" y1="866" x2="727.5" y2="874" stroke="#111" stroke-width="0.8"/>
<line x1="735.0" y1="866" x2="735.0" y2="874" stroke="#111" stroke-width="0.8"/>
<line x1="742.5" y1="866" x2="742.5" y2="874" stroke="#111" stroke-width="0.8"/>
<line x1="750.0" y1="866" x2="750.0" y2="874" stroke="#111" stroke-width="0.8"/>
<line x1="757.5" y1="866" x2="757.5" y2="874" stroke="#111" stroke-width="0.8"/>
<line x1="765.0" y1="866" x2="765.0" y2="874" stroke="#111" stroke-width="0.8"/>
<line x1="772.5" y1="866" x2="772.5" y2="874" stroke="#111" stroke-width="0.8"/>
<line x1="780.0" y1="866" x2="780.0" y2="874" stroke="#111" stroke-width="0.8"/>
<line x1="787.5" y1="866" x2="787.5" y2="874" stroke="#111" stroke-width="0.8"/>
<line x1="795.0" y1="866" x2="795.0" y2="874" stroke="#111" stroke-width="0.8"/>
<line x1="802.5" y1="866" x2="802.5" y2="874" stroke="#111" stroke-width="0.8"/>
<line x1="810.0" y1="866" x2="810.0" y2="874" stroke="#111" stroke-width="0.8"/>
<line x1="817.5" y1="866" x2="817.5" y2="874" stroke="#111" stroke-width="0.8"/>
<line x1="825.0" y1="866" x2="825.0" y2="874" stroke="#111" stroke-width="0.8"/>
<line x1="832.5" y1="866" x2="832.5" y2="874" stroke="#111" stroke-width="0.8"/>
<line x1="840.0" y1="866" x2="840.0" y2="874" stroke="#111" stroke-width="0.8"/>
<line x1="847.5" y1="866" x2="847.5" y2="874" stroke="#111" stroke-width="0.8"/>
<line x1="855.0" y1="866" x2="855.0" y2="874" stroke="#111" stroke-width="0.8"/>
<line x1="862.5" y1="866" x2="862.5" y2="874" stroke="#111" stroke-width="0.8"/>
<line x1="870.0" y1="866" x2="870.0" y2="874" stroke="#111" stroke-width="0.8"/>
<line x1="877.5" y1="866" x2="877.5" y2="874" stroke="#111" stroke-width="0.8"/>
<line x1="885.0" y1="866" x2="885.0" y2="874" stroke="#111" stroke-width="0.8"/>
<line x1="892.5" y1="866" x2="892.5" y2="874" stroke="#111" stroke-width="0.8"/>
<line x1="900.0" y1="866" x2="900.0" y2="874" stroke="#111" stroke-width="0.8"/>
<line x1="907.5" y1="866" x2="907.5" y2="874" stroke="#111" stroke-width="0.8"/>
<line x1="915.0" y1="866" x2="915.0" y2="874" stroke="#111" stroke-width="0.8"/>
<line x1="922.5" y1="866" x2="922.5" y2="874" stroke="#111" stroke-width="0.8"/>
<line x1="930.0" y1="866" x2="930.0" y2="874" stroke="#111" stroke-width="0.8"/>
<line x1="937.5" y1="866" x2="937.5" y2="874" stroke="#111" stroke-width="0.8"/>
<line x1="945.0" y1="866" x2="945.0" y2="874" stroke="#111" stroke-width="0.8"/>
<line x1="952.5" y1="866" x2="952.5" y2="874" stroke="#111" stroke-width="0.8"/>
<line x1="960.0" y1="866" x2="960.0" y2="874" stroke="#111" stroke-width="0.8"/>
<line x1="967.5" y1="866" x2="967.5" y2="874" stroke="#111" stroke-width="0.8"/>
<line x1="975.0" y1="866" x2="975.0" y2="874" stroke="#111" stroke-width="0.8"/>
<line x1="982.5" y1="866" x2="982.5" y2="874" stroke="#111" stroke-width="0.8"/>
<line x1="990.0" y1="866" x2="990.0" y2="874" stroke="#111" stroke-width="0.8"/>
<line x1="997.5" y1="866" x2="997.5" y2="874" stroke="#111" stroke-width="0.8"/>
<line x1="1005.0" y1="866" x2="1005.0" y2="874" stroke="#111" stroke-width="0.8"/>
<line x1="1012.5" y1="866" x2="1012.5" y2="874" stroke="#111" stroke-width="0.8"/>
<line x1="1020.0" y1="866" x2="1020.0" y2="874" stroke="#111" stroke-width="0.8"/>
<line x1="1027.5" y1="866" x2="1027.5" y2="874" stroke="#111" stroke-width="0.8"/>
<line x1="1035.0" y1="866" x2="1035.0" y2="874" stroke="#111" stroke-width="0.8"/>
<line x1="1042.5" y1="866" x2="1042.5" y2="874" stroke="#111" stroke-width="0.8"/>
<line x1="1050.0" y1="866" x2="1050.0" y2="874" stroke="#111" stroke-width="0.8"/>
<line x1="1057.5" y1="866" x2="1057.5" y2="874" stroke="#111" stroke-width="0.8"/>
<line x1="1065.0" y1="866" x2="1065.0" y2="874" stroke="#111" stroke-width="0.8"/>
<line x1="1072.5" y1="866" x2="1072.5" y2="874" stroke="#111" stroke-width="0.8"/>
<line x1="1080.0" y1="866" x2="1080.0" y2="874" stroke="#111" stroke-width="0.8"/>
<line x1="1087.5" y1="866" x2="1087.5" y2="874" stroke="#111" stroke-width="0.8"/>
<line x1="1095.0" y1="866" x2="1095.0" y2="874" stroke="#111" stroke-width="0.8"/>
<line x1="1102.5" y1="866" x2="1102.5" y2="874" stroke="#111" stroke-width="0.8"/>
<line x1="1110.0" y1="866" x2="1110.0" y2="874" stroke="#111" stroke-width="0.8"/>
<line x1="1117.5" y1="866" x2="1117.5" y2="874" stroke="#111" stroke-width="0.8"/>
<line x1="1125.0" y1="866" x2="1125.0" y2="874" stroke="#111" stroke-width="0.8"/>
<line x1="1132.5" y1="866" x2="1132.5" y2="874" stroke="#111" stroke-width="0.8"/>
<line x1="1140.0" y1="866" x2="1140.0" y2="874" stroke="#111" stroke-width="0.8"/>
<line x1="1147.5" y1="866" x2="1147.5" y2="874" stroke="#111" stroke-width="0.8"/>
<line x1="1155.0" y1="866" x2="1155.0" y2="874" stroke="#111" stroke-width="0.8"/>
<line x1="1162.5" y1="866" x2="1162.5" y2="874" stroke="#111" stroke-width="0.8"/>
<line x1="1170.0" y1="866" x2="1170.0" y2="874" stroke="#111" stroke-width="0.8"/>
<line x1="1177.5" y1="866" x2="1177.5" y2="874" stroke="#111" stroke-width="0.8"/>
<line x1="1185.0" y1="866" x2="1185.0" y2="874" stroke="#111" stroke-width="0.8"/>
<line x1="1192.5" y1="866" x2="1192.5" y2="874" stroke="#111" stroke-width="0.8"/>
<line x1="1200.0" y1="866" x2="1200.0" y2="874" stroke="#111" stroke-width="0.8"/>
<line x1="1207.5" y1="866" x2="1207.5" y2="874" stroke="#111" stroke-width="0.8"/>
<line x1="1215.0" y1="866" x2="1215.0" y2="874" stroke="#111" stroke-width="0.8"/>
<text x="675" y="850" font-family="DejaVu Sans, Arial, sans-serif" font-size="22" font-weight="bold" fill="#003366" text-anchor="middle">TIME60 allows musical time to be represented as a precise coordinate axis.</text>
<rect x="1435" y="560" width="420" height="310" rx="14" fill="white" stroke="#2e7d32" stroke-width="2"/>
<text x="1645" y="605" font-family="DejaVu Sans, Arial, sans-serif" font-size="26" font-weight="bold" fill="#1b5e20" text-anchor="middle">60 HAS MANY</text>
<text x="1645" y="638" font-family="DejaVu Sans, Arial, sans-serif" font-size="26" font-weight="bold" fill="#1b5e20" text-anchor="middle">MUSICAL DIVISORS</text>
<text x="1530" y="680" font-family="DejaVu Sans, Arial, sans-serif" font-size="20" font-weight="bold" fill="#111" text-anchor="middle">÷ 2</text>
<text x="1660" y="680" font-family="DejaVu Sans, Arial, sans-serif" font-size="20" font-weight="normal" fill="#111" text-anchor="start">halves</text>
<text x="1530" y="708" font-family="DejaVu Sans, Arial, sans-serif" font-size="20" font-weight="bold" fill="#111" text-anchor="middle">÷ 3</text>
<text x="1660" y="708" font-family="DejaVu Sans, Arial, sans-serif" font-size="20" font-weight="normal" fill="#111" text-anchor="start">triplets</text>
<text x="1530" y="736" font-family="DejaVu Sans, Arial, sans-serif" font-size="20" font-weight="bold" fill="#111" text-anchor="middle">÷ 4</text>
<text x="1660" y="736" font-family="DejaVu Sans, Arial, sans-serif" font-size="20" font-weight="normal" fill="#111" text-anchor="start">quarters</text>
<text x="1530" y="764" font-family="DejaVu Sans, Arial, sans-serif" font-size="20" font-weight="bold" fill="#111" text-anchor="middle">÷ 5</text>
<text x="1660" y="764" font-family="DejaVu Sans, Arial, sans-serif" font-size="20" font-weight="normal" fill="#111" text-anchor="start">quintuplets</text>
<text x="1530" y="792" font-family="DejaVu Sans, Arial, sans-serif" font-size="20" font-weight="bold" fill="#111" text-anchor="middle">÷ 6</text>
<text x="1660" y="792" font-family="DejaVu Sans, Arial, sans-serif" font-size="20" font-weight="normal" fill="#111" text-anchor="start">sextuplets</text>
<text x="1530" y="820" font-family="DejaVu Sans, Arial, sans-serif" font-size="20" font-weight="bold" fill="#111" text-anchor="middle">÷ 12</text>
<text x="1660" y="820" font-family="DejaVu Sans, Arial, sans-serif" font-size="20" font-weight="normal" fill="#111" text-anchor="start">twelfth-parts</text>
<text x="1645" y="845" font-family="DejaVu Sans, Arial, sans-serif" font-size="24" font-weight="bold" fill="#1b5e20" text-anchor="middle">60 = 2² × 3 × 5</text>
<rect x="45" y="920" width="1830" height="95" rx="12" fill="#fffaf0" stroke="#bf9000" stroke-width="2"/>
<text x="960.0" y="955" font-family="DejaVu Sans, Arial, sans-serif" font-size="25" font-weight="bold" fill="#003366" text-anchor="middle">Pitch is organized by temperament. Musical time is represented in the TIME60 system.</text>
<text x="960.0" y="988" font-family="DejaVu Sans, Arial, sans-serif" font-size="25" font-weight="bold" fill="#003366" text-anchor="middle">This keeps pitch, rhythm and resonance development inside one coordinate space.</text>
</svg>